<?xml version="1.0" encoding="utf-8"?>
<!-- Generator: Adobe Illustrator 21.0.0, SVG Export Plug-In . SVG Version: 6.00 Build 0)  -->
<svg version="1.1" xmlns="http://www.w3.org/2000/svg" xmlns:xlink="http://www.w3.org/1999/xlink" x="0px" y="0px"
	 viewBox="0 0 227.4 228.8" style="enable-background:new 0 0 227.4 228.8;" xml:space="preserve">
<style type="text/css">
	.st0{fill:#FFFFFF;stroke:#000000;stroke-miterlimit:10;}
	.st1{fill:#E25C1A;}
	.st2{fill:none;}
	.st3{fill:#FFFFFF;}
	.st4{font-family:'Arial'; font-weight: bold;}
	.st5{font-size:24px;}
	.st6{fill:#FFFDFD;}
	.st7{fill:none;stroke:#FFFDFD;stroke-miterlimit:10;}
</style>
<g id="Layer_1">
	<g id="Layer_2">
		<rect x="28" y="14.2" class="st0" width="164.3" height="164.3"/>
	</g>
	<g id="Layer_1_1_">
		<g>
			<g id="XMLID_1_">
				<g>
					<path class="st1" d="M227.4,14.2v200.4v1.3l-0.2,1.3l-0.3,1.3l-0.4,1.2l-0.5,1.2l-0.6,1.1l-0.8,1.1l-0.8,1l-0.9,0.9l-1,0.8
						l-1.1,0.8l-1.1,0.6l-1.2,0.5l-1.2,0.4l-1.3,0.3l-1.3,0.2h-1.3v0.1H14.2v-0.1h-1.3l-1.3-0.2l-1.3-0.3L9,227.8l-1.2-0.5l-1.2-0.6
						l-1.1-0.8l-1-0.8l-0.9-0.9l-0.8-1L2.1,222l-0.6-1.1L1,219.7l-0.4-1.2l-0.3-1.3L0,215.9v-1.3V14.2v-1.3l0.2-1.3l0.3-1.3L1,9.1
						l0.5-1.2l0.6-1.2l0.8-1.1l0.8-1l0.9-0.9l1-0.8l1.1-0.8l1.2-0.6L9,1l1.2-0.4l1.3-0.3l1.3-0.2L14.2,0l0,0h199.1l0,0l1.3,0.1
						l1.3,0.2l1.3,0.3l1.2,0.4l1.2,0.5l1.1,0.6l1.1,0.8l1,0.8l0.9,0.9l0.8,1l0.8,1.1l0.6,1.2l0.5,1.2l0.4,1.2l0.3,1.3l0.2,1.3
						L227.4,14.2z"/>
				</g>
				<g>
					<polyline class="st1" points="168.6,98 168.6,98 168.3,97.4 167.9,96.8 167.3,96.3 166.7,95.9 166.1,95.6 165.4,95.4
						164.6,95.3 163.9,95.4 163.2,95.6 162.6,95.9 161.9,96.3 161.5,96.8 					"/>
					<polyline class="st1" points="161.9,99.8 162,99.9 162.8,100.4 163.8,100.8 164.9,101.2 165.9,101.4 167,101.6 168.1,101.6
						169.2,101.5 170.3,101.2 171.3,100.9 172.4,100.5 173.3,100 174.2,99.3 175.1,98.6 175.8,97.8 176.5,97 177,96.1 177,96
						"/>
					<polyline class="st1" points="161.9,99.9 162,99.9 162.7,100.1 163.5,100.3 164.3,100.3 165.2,100.2 166,100 166.8,99.7
						167.5,99.2 168.1,98.6 168.6,98 168.6,98 					"/>
					<polyline class="st1" points="91.5,52.8 91.5,52.1 91.5,51.4 91.4,50.7 91.1,50 90.7,49.4 90.3,48.9 89.7,48.4 89.1,48
						88.4,47.8 87.7,47.6 87,47.6 86.2,47.8 					"/>
					<polyline class="st1" points="91.5,52.8 91.7,51.8 91.8,50.7 91.7,49.6 91.6,48.5 91.4,47.5 91,46.4 90.5,45.4 90,44.5
						89.3,43.6 88.6,42.8 87.8,42 86.9,41.4 86,40.8 85,40.4 84,40.1 82.9,39.8 82.8,39.8 					"/>
					<polyline class="st1" points="86.2,47.7 86.2,47.8 86.1,48.6 86,49.4 86,50.2 86.2,51 86.5,51.8 86.9,52.6 87.4,53.2 88,53.8
						88.7,54.3 					"/>
					<polyline class="st1" points="86.2,147.3 87,147.4 87.7,147.4 88.4,147.3 89.1,147 89.7,146.6 90.3,146.2 90.7,145.6 91.1,145
						91.4,144.4 91.5,143.6 91.5,142.9 91.5,142.2 					"/>
					<polyline class="st1" points="88.7,140.7 87.7,141.2 86.7,141.7 85.8,142.4 85.1,143.1 84.3,143.9 83.6,144.8 83.1,145.7
						82.6,146.7 82.3,147.7 82.1,148.8 81.9,149.9 81.9,151 82,152.1 82.2,153.2 82.5,154.2 82.9,155.2 82.9,155.2 					"/>
					<polyline class="st1" points="88.7,140.7 88,141.2 87.4,141.8 86.9,142.5 86.5,143.2 86.2,144 86,144.8 86,145.6 86.1,146.5
						86.2,147.3 86.2,147.3 					"/>
					<line class="st1" x1="14.2" y1="0" x2="213.3" y2="0"/>
					<polyline class="st1" points="150.7,122.4 150.7,122.5 151.2,124 151.8,125.5 152.6,126.9 153.4,128.3 154.3,129.7
						155.3,130.9 156.4,132.1 157.5,133.3 158.8,134.3 160.1,135.3 161.5,136.1 162.9,136.9 164.4,137.6 165.9,138.1 167.5,138.6
						169.1,139 170.6,139.2 172.3,139.3 173.9,139.4 175.5,139.3 177.1,139.1 178.7,138.7 					"/>
					<polyline class="st1" points="150.7,122.4 150.7,122.5 151.8,123.7 153,124.8 154.4,125.9 155.7,126.9 157.2,127.8
						158.7,128.5 160.3,129.2 161.9,129.7 163.5,130.2 165.2,130.5 166.8,130.7 166.8,130.7 					"/>
					<polyline class="st1" points="166.8,130.8 166.8,130.7 166,129.3 165.1,127.9 164.1,126.5 163,125.2 161.8,124 160.5,122.9
						159.2,121.9 157.8,120.9 156.3,120.1 154.7,119.4 153.1,118.8 153.1,118.8 					"/>
					<polyline class="st1" points="76.8,72.6 76.7,72.5 75.6,71.4 74.4,70.2 73.1,69.1 71.7,68.2 70.2,67.3 68.7,66.5 67.1,65.9
						65.6,65.3 63.9,64.8 62.2,64.5 60.7,64.4 60.6,64.4 					"/>
					<polyline class="st1" points="60.6,64.3 60.7,64.4 61.4,65.8 62.3,67.2 63.3,68.6 64.4,69.9 65.6,71.1 66.9,72.2 68.2,73.2
						69.7,74.1 71.2,75 72.7,75.7 74.3,76.3 74.3,76.3 					"/>
					<line class="st1" x1="227.4" y1="214.6" x2="227.4" y2="14.2"/>
					<polyline class="st1" points="227.4,14.2 227.4,12.9 227.2,11.6 226.9,10.3 226.4,9.1 225.9,7.9 225.3,6.7 224.5,5.7
						223.7,4.7 222.8,3.7 221.8,2.9 220.7,2.2 219.6,1.5 218.4,1 217.1,0.6 215.9,0.3 214.6,0.1 213.3,0 					"/>
					<polyline class="st1" points="144.5,155.2 144.5,155.2 145,154.2 145.2,153.2 145.4,152.1 145.5,151 145.5,149.9 145.4,148.8
						145.1,147.7 144.8,146.7 144.3,145.7 143.8,144.8 143.1,143.9 142.4,143.1 141.6,142.4 140.7,141.7 139.7,141.2 138.9,140.8
						138.7,140.7 					"/>
					<polyline class="st1" points="141.2,147.3 141.2,147.3 141.4,146.5 141.5,145.6 141.4,144.8 141.3,144 140.9,143.2
						140.6,142.5 140.1,141.8 139.4,141.2 138.9,140.8 138.8,140.7 					"/>
					<polyline class="st1" points="66,96.8 65.5,96.3 64.9,95.9 64.2,95.6 63.5,95.4 62.8,95.3 62.1,95.4 61.4,95.6 60.7,95.9
						60.1,96.3 59.6,96.8 59.2,97.4 58.9,98 58.8,98 					"/>
					<polyline class="st1" points="66,96.7 65.5,96.3 65.2,96 64.4,95.2 63.5,94.6 62.6,94.1 61.5,93.7 60.5,93.3 59.4,93.2
						58.3,93 57.2,93 56.2,93.2 55.1,93.4 54,93.7 53,94.2 52.1,94.8 51.2,95.4 50.4,96.1 50.4,96.1 					"/>
					<polyline class="st1" points="58.8,98 58.9,98 59.4,98.6 60,99.2 60.7,99.7 61.5,100 62.3,100.2 63.1,100.3 64,100.3
						64.8,100.1 65.3,100 65.6,99.9 					"/>
					<line class="st1" x1="0" y1="214.6" x2="0" y2="14.2"/>
					<polyline class="st1" points="14.2,0 12.8,0.1 11.6,0.3 10.3,0.6 9,1 7.9,1.5 6.7,2.2 5.6,2.9 4.6,3.7 3.7,4.7 2.9,5.7
						2.1,6.7 1.5,7.9 1,9.1 0.5,10.3 0.2,11.6 0,12.9 0,14.2 					"/>
					<polyline class="st1" points="166.8,64.4 166.8,64.4 165.2,64.5 163.5,64.8 161.9,65.3 160.3,65.9 158.7,66.5 157.2,67.3
						155.7,68.2 154.4,69.1 153,70.2 151.8,71.4 150.7,72.5 150.7,72.6 					"/>
					<polyline class="st1" points="153.1,76.3 153.2,76.3 154.7,75.7 156.3,75 157.8,74.1 159.2,73.2 160.5,72.2 161.8,71.1
						163,69.9 164.1,68.6 165.1,67.2 166,65.8 166.8,64.4 166.8,64.3 					"/>
					<polyline class="st1" points="153.2,76.3 154.8,76.4 156.4,76.3 158,76.2 159.7,76 161.2,75.6 162.8,75.1 164.3,74.6
						165.8,73.9 167.2,73.1 168.6,72.3 169.9,71.3 171.1,70.2 172.3,69.1 173.4,67.9 174.4,66.7 175.3,65.3 176.1,63.9 176.9,62.4
						177.5,60.9 178,59.4 178.4,57.8 178.7,56.3 178.7,56.2 					"/>
					<polyline class="st1" points="111.6,146.1 110.6,147.4 109.7,148.7 108.9,150.1 108.3,151.6 107.6,153.1 107.2,154.7
						106.8,156.3 106.5,157.9 106.3,159.4 106.3,161.1 106.3,162.7 106.5,164.3 106.8,165.9 107.2,167.5 107.6,169.1 108.3,170.6
						109,172 109.8,173.5 110.6,174.8 111.6,176.1 112.7,177.3 113.8,178.5 					"/>
					<polyline class="st1" points="111.6,146.1 111.3,147.7 110.9,149.4 110.8,151.1 110.8,152.8 110.9,154.5 111.1,156.1
						111.4,157.8 111.8,159.4 112.4,161 113.1,162.6 113.8,164.1 113.9,164.1 					"/>
					<polyline class="st1" points="60.6,130.7 60.7,130.7 62.2,130.5 63.9,130.2 65.6,129.7 67.1,129.2 68.7,128.5 70.2,127.8
						71.7,126.9 73.1,125.9 74.4,124.8 75.6,123.7 76.7,122.5 76.8,122.4 					"/>
					<polyline class="st1" points="74.3,118.8 74.3,118.8 72.7,119.4 71.2,120.1 69.7,120.9 68.2,121.9 66.9,122.9 65.6,124
						64.4,125.2 63.3,126.5 62.3,127.9 61.4,129.3 60.7,130.7 60.6,130.8 					"/>
					<polyline class="st1" points="74.2,118.7 72.6,118.6 71,118.7 69.4,118.8 67.8,119 66.2,119.4 64.6,119.9 63.1,120.4
						61.6,121.1 60.2,121.9 58.8,122.7 57.5,123.7 56.3,124.8 55.1,125.9 54,127.1 53,128.3 52.1,129.7 51.3,131.1 50.6,132.6
						49.9,134.1 49.5,135.6 49,137.2 48.7,138.7 					"/>
					<line class="st1" x1="14.2" y1="228.8" x2="213.3" y2="228.8"/>
					<polyline class="st1" points="213.3,228.7 214.6,228.7 215.9,228.5 217.1,228.2 218.4,227.8 219.6,227.2 220.7,226.6
						221.8,225.9 222.8,225 223.7,224.1 224.5,223.1 225.3,222 225.9,220.9 226.4,219.7 226.9,218.5 227.2,217.2 227.4,215.9
						227.4,214.6 					"/>
					<polyline class="st1" points="0,214.6 0,215.9 0.2,217.2 0.5,218.5 1,219.7 1.5,220.9 2.1,222 2.9,223.1 3.7,224.1 4.6,225
						5.6,225.9 6.7,226.6 7.9,227.2 9,227.8 10.3,228.2 11.6,228.5 12.8,228.7 14.2,228.7 					"/>
					<polyline class="st1" points="121.3,106.9 120.1,109.8 118.9,112.8 117.9,115.8 116.9,118.8 116.1,121.9 115.4,125
						114.7,128.1 114.3,131.2 113.9,134.4 113.6,137.6 					"/>
					<polyline class="st1" points="144,76.6 144,76.6 141.7,78.7 139.4,81 137.2,83.2 135,85.6 133,88 131,90.5 129.2,93.1
						127.4,95.7 125.7,98.5 					"/>
					<polyline class="st1" points="113.5,137.6 113.1,134.1 112.5,130.6 111.9,127.2 111.1,123.7 110.2,120.4 109.2,117
						108.1,113.7 106.8,110.4 105.5,107.2 104.1,104 102.5,100.8 100.9,97.7 99.1,94.7 97.3,91.7 95.3,88.8 93.3,85.9 91.1,83.2
						88.9,80.5 86.6,77.8 84.2,75.3 84.2,75.3 					"/>
					<polyline class="st1" points="113.9,30.9 113.8,31 113.1,32.5 112.4,34 111.8,35.6 111.4,37.2 111.1,38.9 110.9,40.6
						110.8,42.3 110.8,44 110.9,45.7 111.3,47.3 111.6,49 					"/>
					<polyline class="st1" points="116.1,49 116.1,48.9 116.4,47.3 116.7,45.7 116.9,44 116.9,42.3 116.8,40.6 116.6,38.9
						116.3,37.2 115.8,35.6 115.3,34 114.6,32.5 113.8,31 113.8,30.9 					"/>
					<polyline class="st1" points="116,49 116.1,48.9 117,47.7 117.9,46.3 118.7,44.9 119.4,43.5 120,41.9 120.5,40.4 120.9,38.8
						121.1,37.2 121.3,35.6 121.4,34 121.3,32.3 121.1,30.7 120.9,29.1 120.5,27.5 120,26 119.4,24.5 118.7,23 117.9,21.6 117,20.2
						116,18.9 115,17.7 113.8,16.6 					"/>
					<polyline class="st1" points="141.2,47.8 140.5,47.6 139.8,47.6 139.1,47.8 138.3,48 137.7,48.4 137.2,48.9 136.7,49.4
						136.3,50 136.1,50.7 135.9,51.4 135.9,52.1 136,52.8 					"/>
					<polyline class="st1" points="144.6,39.8 144.5,39.8 143.5,40.1 142.4,40.4 141.4,40.8 140.5,41.4 139.6,42 138.8,42.8
						138.1,43.6 137.4,44.5 136.9,45.4 136.4,46.4 136.1,47.5 135.8,48.5 135.7,49.6 135.7,50.7 135.7,51.8 136,52.8 					"/>
					<polyline class="st1" points="144,76.6 142,76.8 140,77 138,77.3 136,77.7 134.1,78.3 132.2,79 130.3,79.8 128.5,80.6
						126.7,81.6 125,82.7 123.3,83.9 121.8,85.2 120.3,86.6 118.9,88 117.6,89.5 116.3,91.1 115.2,92.8 114.1,94.5 					"/>
				</g>
			</g>
		</g>
		<rect x="20.5" y="195.3" class="st2" width="198.6" height="26.4"/>
		<text transform="matrix(1 0 0 1 31.0302 212.4942)" class="st3 st4 st5">AUDIOVISUAL</text>
	</g>
</g>
<g id="Layer_3">
	<g>
		<g id="XMLID_2_">
			<g>
				<path class="st6" d="M206.5,38v108.8h-71.4h-2.6v13.4l9.5,9.3H91.4l8.6-10.6v-12.1H27.3V38H206.5z M197.8,139.3V46.4L35.1,47
					v92.3H197.8z"/>
			</g>
			<g>
				<polyline class="st7" points="27.3,38 206.5,38 206.5,146.8 135.1,146.8 				"/>
				<polyline class="st7" points="27.3,38 27.3,146.8 100,146.8 100,158.9 91.4,169.4 142.1,169.4 132.6,160.2 132.6,146.8
					135.1,146.8 				"/>
				<polygon class="st7" points="35.1,47 35.1,139.3 197.8,139.3 197.8,46.4 				"/>
			</g>
		</g>
	</g>
</g>
</svg>
