<?xml version="1.0" encoding="utf-8"?>
<!-- Generator: Adobe Illustrator 21.1.0, SVG Export Plug-In . SVG Version: 6.00 Build 0)  -->
<svg version="1.1" id="Layer_1" xmlns="http://www.w3.org/2000/svg" xmlns:xlink="http://www.w3.org/1999/xlink" x="0px" y="0px"
	 viewBox="0 0 227.4 228.8" style="enable-background:new 0 0 227.4 228.8;" xml:space="preserve">
<style type="text/css">
	.st0{fill:#FFFFFF;stroke:#000000;stroke-miterlimit:10;}
	.st1{fill:#3A76EF;}
	.st2{fill:none;}
	.st3{fill:#FFFFFF;}
	.st4{font-family:'Arial'; font-weight: bold;}
	.st5{font-size:24px;}
	.st6{fill:#F7F7F9;}
	.st7{fill:#3A5CED;}
	.st8{fill:none;stroke:#F9F9F9;stroke-width:3;stroke-miterlimit:10;}
</style>
<g id="Layer_1_3_">
	<g id="Layer_1_2_">
		<g id="Layer_2">
			<rect x="28" y="14.2" class="st0" width="164.3" height="164.3"/>
		</g>
		<g id="Layer_1_1_">
			<g id="XMLID_1_">
				<g>
					<g id="XMLID_2_">
						<g>
							<path class="st1" d="M227.4,214.6v0.5c0,0.5,0,1-0.1,1.5v0.2c0,0.2-0.1,0.5-0.1,0.7L227,218c-0.1,0.3-0.2,0.6-0.3,0.9
								l-0.1,0.4c-0.1,0.2-0.2,0.4-0.3,0.7l-0.2,0.4c-0.1,0.3-0.3,0.6-0.4,0.9v0.1c-0.2,0.4-0.4,0.7-0.7,1.1l-0.4,0.6l-0.5,0.6
								c-0.2,0.3-0.5,0.6-0.7,0.8l-0.1,0.1c-0.3,0.3-0.5,0.5-0.8,0.7l-0.6,0.5l-0.6,0.4c-0.4,0.3-0.7,0.5-1.1,0.7h-0.1
								c-0.3,0.2-0.6,0.3-0.9,0.4l-0.4,0.2c-0.2,0.1-0.4,0.2-0.7,0.3l-0.4,0.1c-0.3,0.1-0.6,0.2-0.9,0.3l-0.5,0.1
								c-0.2,0-0.5,0.1-0.7,0.1h-0.2c-0.5,0.1-1,0.1-1.5,0.1h-0.5v0.1H14.2v-0.1h-0.5c-0.5,0-1,0-1.5-0.1H12c-0.2,0-0.5-0.1-0.7-0.1
								l-0.9-0.2L9.8,228c-0.5-0.1-1.1-0.3-1.6-0.5l-0.1-0.1c-0.2-0.1-0.4-0.2-0.6-0.3L7.4,227c-0.5-0.3-1-0.5-1.4-0.9l-0.4-0.3
								L5,225.3c-0.3-0.2-0.6-0.5-0.8-0.7l-0.2,0c-0.3-0.3-0.5-0.5-0.7-0.8c-0.3-0.4-0.6-0.8-0.8-1.2L2.1,222l-0.3-0.6
								c-0.2-0.3-0.3-0.6-0.5-0.9L1.1,220c-0.1-0.2-0.2-0.4-0.3-0.7l-0.1-0.4c-0.1-0.3-0.2-0.6-0.3-0.9l-0.2-0.8l0.1-0.2
								c-0.2-0.7-0.3-1.5-0.3-2.2v-0.2V14.2v-0.5c0-0.5,0-1,0.1-1.5V12c0-0.2,0.1-0.5,0.1-0.7v-0.1c0.1-0.6,0.3-1.1,0.5-1.6L1,9.1
								l0.4-0.9C1.5,8,1.5,7.8,1.6,7.6l0.1-0.2C2,6.9,2.3,6.5,2.6,6l0.3-0.4L3.4,5c0.2-0.3,0.5-0.6,0.7-0.8l0.1-0.1
								C4.5,3.8,4.7,3.6,5,3.4l0.6-0.5L6,2.6C6.5,2.3,6.9,2,7.4,1.7l0.5-0.2l0.6-0.3c0.3-0.1,0.6-0.3,1-0.4l0.3-0.1
								c0.3-0.1,0.6-0.2,0.9-0.3l0.5-0.1c0.2,0,0.5-0.1,0.7-0.1l0.5-0.1c0.3,0,0.5-0.1,0.8-0.1l1-0.1h199.1l0.9,0.1
								c0.3,0,0.5,0,0.8,0.1l0.6,0.1c0.2,0,0.5,0.1,0.7,0.1l0.5,0.1c0.3,0.1,0.6,0.2,0.9,0.3l0.4,0.1c0.2,0.1,0.4,0.2,0.7,0.3
								l0.4,0.2c0.3,0.1,0.6,0.3,0.9,0.5h0.1c0.4,0.2,0.7,0.4,1.1,0.7l0.6,0.4l0.6,0.5c0.3,0.2,0.6,0.5,0.8,0.7l0.1,0.1
								c0.3,0.3,0.5,0.5,0.7,0.8l0.5,0.6l0.3,0.4c0.3,0.4,0.6,0.9,0.8,1.4l0.1,0.2c0.1,0.2,0.2,0.4,0.3,0.6l0.2,0.5
								c0.1,0.2,0.2,0.4,0.3,0.7l0.1,0.4c0.1,0.3,0.2,0.6,0.3,0.9l0.1,0.5c0.1,0.2,0.1,0.5,0.1,0.7l0.1,0.6c0,0.3,0.1,0.5,0.1,0.8
								v0.5c0,0.3,0,0.5,0,0.8L227.4,214.6L227.4,214.6z"/>
						</g>
					</g>
				</g>
			</g>
			<rect x="20.5" y="195.3" class="st2" width="198.6" height="26.4"/>
			<text transform="matrix(1 0 0 1 58.3582 212.4942)" class="st3 st4 st5">FINISHES</text>
		</g>
	</g>
	<g id="XMLID_4_">
		<g>
			<g id="XMLID_3_">
				<g>
					<polygon class="st6" points="176.3,88 176.3,92.4 176.3,157.2 173.3,158.4 170.1,159.5 167,160.5 163.9,161.4 160.7,162.1
						157.5,162.7 154.2,163.2 150.9,163.6 147.7,163.8 144.4,164 141.2,164 137.8,163.8 134.6,163.6 131.4,163.2 128.1,162.7
						124.9,162.1 121.7,161.4 118.6,160.5 115.4,159.5 112.3,158.4 109.3,157.2 109.2,157.2 109.2,91.7 109.2,88.6 110,88.4
						111.7,89.3 114,90.7 116.5,91.9 118.9,93 121.4,94 124,94.9 126.6,95.6 129.3,96.4 131.9,96.9 134.6,97.4 137.4,97.6
						140.1,97.9 142.8,97.9 145.5,97.9 148.2,97.6 150.9,97.4 153.7,96.9 156.3,96.4 159,95.6 161.6,94.9 162.1,94.8 164.2,94
						166.6,93 169.1,91.9 171.6,90.7 173.9,89.3 					"/>
					<polygon class="st7" points="176.3,87.8 176.3,88 172.9,86.9 169.5,85.9 165.9,85 163.9,84.6 163.9,84.4 165.8,84.8
						169.3,85.7 172.8,86.7 					"/>
					<polygon class="st1" points="157.5,59.6 158.6,61.6 159.6,63.7 160.6,65.8 161.3,67.9 162,70.1 162.6,72.3 163.1,74.5
						163.5,76.7 163.7,78.9 163.8,81.1 163.8,83.3 163.7,84.4 163.9,84.4 163.9,84.6 162.4,84.3 158.9,83.8 155.3,83.3 151.7,82.8
						148.2,82.5 144.5,82.4 140.9,82.4 137.4,82.5 133.9,82.8 130.2,83.3 126.7,83.8 123.1,84.3 120.3,84.9 119.8,82.9 119.4,80.9
						119.2,78.8 119.1,76.8 119.1,74.7 119.1,72.8 119.3,70.7 119.7,68.7 120.2,66.7 120.8,64.7 121.5,62.8 122,61.7 122.2,61.2
						123.2,59.3 124.2,57.6 125,56.4 125.5,55.7 126.7,54.1 128.1,52.5 129.4,51.2 129.8,50.8 131.1,49.7 131.9,49 132.5,48.6
						134.2,47.5 135.9,46.4 137,46 138.2,45.8 139.4,45.7 140.5,45.7 141.7,45.8 142.8,46 143.9,46.4 145,46.9 146,47.5 147,48.1
						147.9,48.8 148.6,49.3 150.3,50.8 151.9,52.4 153.4,54.1 154.9,55.8 156.3,57.7 					"/>
					<polygon class="st7" points="172.9,86.9 176.3,88 173.9,89.3 171.6,90.7 169.1,91.9 166.6,93 164.2,94 162.1,94.8 162.7,92.5
						163.2,90.3 163.5,88.1 163.8,85.7 163.9,84.6 165.9,85 169.5,85.9 					"/>
					<polygon class="st7" points="147.1,47.9 148,48.7 146.9,47.8 145.3,46.6 146.2,47.2 					"/>
					<polygon class="st7" points="163.9,78.9 163.9,81.3 163.9,83.5 163.9,84.4 163.7,84.4 163.8,83.3 163.8,81.1 163.7,78.9
						163.5,76.7 163.1,74.5 162.6,72.3 162,70.1 161.3,67.9 160.6,65.8 159.6,63.7 158.6,61.6 157.5,59.6 156.3,57.7 154.9,55.8
						153.4,54.1 151.9,52.4 150.3,50.8 148.6,49.3 147.9,48.8 147,48.1 146,47.5 145,46.9 143.9,46.4 142.8,46 141.7,45.8
						140.5,45.7 139.4,45.7 138.2,45.8 137,46 135.9,46.4 134.2,47.5 132.5,48.6 131.9,49 132.7,48.4 134.3,47.3 136,46.2
						137.1,45.8 138.3,45.5 139.5,45.3 140.7,45.3 141.8,45.5 142.9,45.7 144.1,46.1 145.1,46.6 145.3,46.6 146.9,47.8 148,48.7
						148,48.7 148.7,49.3 150.5,50.8 152.1,52.4 153.5,54.1 155,55.8 156.4,57.7 157.6,59.5 158.7,61.5 159.8,63.6 160.8,65.7
						161.6,67.8 162.3,70.1 162.9,72.2 163.3,74.4 163.7,76.7 					"/>
					<polygon class="st7" points="131.9,49 131.1,49.7 129.8,50.8 130.9,49.8 					"/>
					<polygon class="st7" points="129.8,50.8 129.4,51.2 129.6,51 					"/>
					<polygon class="st7" points="128.1,52.5 126.7,54.1 125.5,55.7 125,56.4 125.3,55.9 126.5,54.3 127.9,52.7 					"/>
					<polygon class="st7" points="123.3,59.1 124.3,57.3 125,56.4 124.2,57.6 123.2,59.3 122.2,61.2 122,61.7 122.3,60.9 					"/>
					<polygon class="st1" points="120.3,84.9 123.1,84.3 126.7,83.8 130.2,83.3 133.9,82.8 137.4,82.5 140.9,82.4 144.5,82.4
						148.2,82.5 151.7,82.8 155.3,83.3 158.9,83.8 162.4,84.3 163.9,84.6 163.8,85.7 163.5,88.1 163.2,90.3 162.7,92.5 162.1,94.8
						161.6,94.9 159,95.6 156.3,96.4 153.7,96.9 150.9,97.4 148.2,97.6 145.5,97.9 142.8,97.9 140.1,97.9 137.4,97.6 134.6,97.4
						131.9,96.9 129.3,96.4 126.6,95.6 124,94.9 121.4,94 118.9,93 116.5,91.9 114,90.7 111.7,89.3 110,88.4 112.4,87.6 115.9,86.6
						119.4,85.7 120,85.6 119.8,85 					"/>
					<polygon class="st7" points="120.2,66.7 119.7,68.7 119.3,70.7 119.1,72.8 119.1,74.7 119.1,76.8 119.2,78.8 119.4,80.9
						119.8,82.9 120.3,84.9 119.8,85 119.5,83.6 119.1,81.6 118.9,79.5 118.8,77.4 118.8,75.3 118.9,73.2 119.1,71.1 119.5,69.1
						120,67.1 120.6,65.1 121.3,63.1 122,61.7 121.5,62.8 120.8,64.7 					"/>
					<polygon class="st7" points="119.7,85 119.8,85 120,85.6 119.4,85.7 115.9,86.6 112.4,87.6 110,88.4 109.3,88 112.6,86.9
						116.1,85.9 					"/>
					<polygon class="st6" points="109.3,88 110,88.4 109.2,88.6 109.2,88 					"/>
					<polygon class="st7" points="173.3,158.4 176.3,157.2 172.4,159.1 169.3,160.2 166.2,161.2 163,162.1 159.8,162.8 156.6,163.4
						153.4,163.9 150.2,164.3 147,164.5 143.8,164.6 140.5,164.6 137.3,164.5 134.1,164.3 130.9,163.9 127.7,163.4 124.5,162.8
						121.3,162.1 118.1,161.2 115,160.2 111.9,159.1 108.9,157.9 108.9,92.4 108.9,88.7 109.2,88.6 109.2,91.7 109.2,157.2
						109.3,157.2 112.3,158.4 115.4,159.5 118.6,160.5 121.7,161.4 124.9,162.1 128.1,162.7 131.4,163.2 134.6,163.6 137.8,163.8
						141.2,164 144.4,164 147.7,163.8 150.9,163.6 154.2,163.2 157.5,162.7 160.7,162.1 163.9,161.4 167,160.5 170.1,159.5 					"/>
					<polygon class="st6" points="100.8,75 64.1,109.3 52.5,97.5 41.6,86.5 77.4,48.4 79.4,49.8 75.3,59.1 81.3,53.5 81.5,53.7
						83.7,56.5 80,64.6 80.2,64.4 80.1,64.7 87.1,59.5 97.4,69.3 92.3,77.1 					"/>
					<polygon class="st7" points="97.5,69.3 92.3,77.1 97.4,69.3 87.1,59.5 					"/>
					<polygon class="st6" points="87.1,59.5 80.1,64.7 80.2,64.4 					"/>
					<polygon class="st7" points="81.5,53.7 83.8,56.4 80.2,64.4 80,64.6 83.7,56.5 					"/>
					<polygon class="st6" points="81.3,53.5 81.5,53.7 81.3,53.5 					"/>
					<polygon class="st7" points="81.2,53.4 81.3,53.5 75.3,59.1 					"/>
					<polygon class="st6" points="79.5,49.8 75.3,59.1 79.4,49.8 77.4,48.4 77.4,48.4 					"/>
					<polygon class="st7" points="64.1,109.3 100.8,75 64.1,109.4 52.5,97.5 					"/>
					<polygon class="st7" points="41.6,86.5 52.5,97.5 41.3,86.6 77.3,48.4 77.4,48.4 					"/>
				</g>
				<g>
					<line class="st8" x1="109.2" y1="91.7" x2="109.2" y2="157.2"/>
					<line class="st8" x1="176.3" y1="92.4" x2="176.3" y2="157.2"/>
					<polyline class="st8" points="109.3,157.2 112.3,158.4 115.4,159.5 118.6,160.5 121.7,161.4 124.9,162.1 128.1,162.7
						131.4,163.2 134.6,163.6 137.8,163.8 141.2,164 144.4,164 147.7,163.8 150.9,163.6 154.2,163.2 157.5,162.7 160.7,162.1
						163.9,161.4 167,160.5 170.1,159.5 173.3,158.4 176.3,157.2 					"/>
					<polyline class="st8" points="109.3,88 110,88.4 111.7,89.3 114,90.7 116.5,91.9 118.9,93 121.4,94 124,94.9 126.6,95.6
						129.3,96.4 131.9,96.9 134.6,97.4 137.4,97.6 140.1,97.9 142.8,97.9 145.5,97.9 148.2,97.6 150.9,97.4 153.7,96.9 156.3,96.4
						159,95.6 161.6,94.9 162.1,94.8 164.2,94 166.6,93 169.1,91.9 171.6,90.7 173.9,89.3 176.3,88 					"/>
					<polyline class="st8" points="109.2,91.7 109.2,88.6 109.2,88 					"/>
					<line class="st8" x1="176.3" y1="88" x2="176.3" y2="92.4"/>
					<polyline class="st8" points="176.3,88 172.9,86.9 169.5,85.9 165.9,85 163.9,84.6 162.4,84.3 158.9,83.8 155.3,83.3
						151.7,82.8 148.2,82.5 144.5,82.4 140.9,82.4 137.4,82.5 133.9,82.8 130.2,83.3 126.7,83.8 123.1,84.3 120.3,84.9 119.8,85
						119.7,85 116.1,85.9 112.6,86.9 109.3,88 					"/>
					<polyline class="st8" points="136,46.2 134.3,47.3 132.7,48.4 131.9,49 131.1,49.7 129.8,50.8 129.6,51 129.4,51.2 128.1,52.5
						126.7,54.1 125.5,55.7 125,56.4 124.3,57.3 123.3,59.1 122.3,60.9 122,61.7 121.5,62.8 120.8,64.7 120.2,66.7 119.7,68.7
						119.3,70.7 119.1,72.8 119.1,74.7 119.1,76.8 119.2,78.8 119.4,80.9 119.8,82.9 120.3,84.9 					"/>
					<line class="st8" x1="145.1" y1="46.6" x2="145" y2="46.4"/>
					<polyline class="st8" points="148,48.7 146.9,47.8 145.3,46.6 					"/>
					<polyline class="st8" points="162.1,94.8 162.7,92.5 163.2,90.3 163.5,88.1 163.8,85.7 163.9,84.6 163.9,84.4 163.9,83.5
						163.9,81.3 163.9,78.9 163.7,76.7 163.3,74.4 162.9,72.2 162.3,70.1 161.6,67.8 160.8,65.7 159.8,63.6 158.7,61.5 157.6,59.5
						156.4,57.7 155,55.8 153.5,54.1 152.1,52.4 150.5,50.8 148.7,49.3 148,48.7 					"/>
					<polyline class="st8" points="148,48.7 148,48.7 147.1,47.9 146.2,47.2 145.3,46.6 145.1,46.6 144.1,46.1 142.9,45.7
						141.8,45.5 140.7,45.3 139.5,45.3 138.3,45.5 137.1,45.8 136,46.2 					"/>
					<polyline class="st8" points="41.6,86.5 52.5,97.5 64.1,109.3 100.8,75 92.3,77.1 97.4,69.3 87.1,59.5 80.2,64.4 80,64.6
						83.7,56.5 81.5,53.7 81.3,53.5 81.3,53.5 75.3,59.1 79.5,49.8 77.4,48.4 77.4,48.4 41.6,86.5 					"/>
					<line class="st8" x1="28" y1="122.4" x2="52.5" y2="97.5"/>
				</g>
			</g>
		</g>
	</g>
</g>
<g id="Layer_2_1_">
</g>
</svg>
