<?xml version="1.0" encoding="utf-8"?>
<!-- Generator: Adobe Illustrator 21.0.0, SVG Export Plug-In . SVG Version: 6.00 Build 0)  -->
<svg version="1.1" xmlns="http://www.w3.org/2000/svg" xmlns:xlink="http://www.w3.org/1999/xlink" x="0px" y="0px"
	 viewBox="0 0 227.4 228.8" style="enable-background:new 0 0 227.4 228.8;" xml:space="preserve">
<style type="text/css">
	.st0{fill:#FFFFFF;stroke:#000000;stroke-miterlimit:10;}
	.st1{fill:#90C1CF;}
	.st2{fill:none;}
	.st3{fill:#FFFFFF;}
	.st4{font-family:'Arial'; font-weight: bold;}
	.st5{font-size:24px;}
	.st6{fill:none;stroke:#FFFFFF;stroke-width:5;stroke-miterlimit:10;}
</style>
<g id="Layer_1">
	<g id="Layer_1_3_">
		<g id="Layer_1_2_">
			<g id="Layer_2">
				<rect x="28" y="14.2" class="st0" width="164.3" height="164.3"/>
			</g>
			<g id="Layer_1_1_">
				<g id="XMLID_1_">
					<g>
						<g id="XMLID_2_">
							<g>
								<path class="st1" d="M227.4,214.6v0.5c0,0.5,0,1-0.1,1.5v0.2c0,0.2-0.1,0.5-0.1,0.7L227,218c-0.1,0.3-0.2,0.6-0.3,0.9
									l-0.1,0.4c-0.1,0.2-0.2,0.4-0.3,0.7l-0.2,0.4c-0.1,0.3-0.3,0.6-0.4,0.9v0.1c-0.2,0.4-0.4,0.7-0.7,1.1l-0.4,0.6l-0.5,0.6
									c-0.2,0.3-0.5,0.6-0.7,0.8l-0.1,0.1c-0.3,0.3-0.5,0.5-0.8,0.7l-0.6,0.5l-0.6,0.4c-0.4,0.3-0.7,0.5-1.1,0.7h-0.1
									c-0.3,0.2-0.6,0.3-0.9,0.4l-0.4,0.2c-0.2,0.1-0.4,0.2-0.7,0.3l-0.4,0.1c-0.3,0.1-0.6,0.2-0.9,0.3l-0.5,0.1
									c-0.2,0-0.5,0.1-0.7,0.1h-0.2c-0.5,0.1-1,0.1-1.5,0.1h-0.5v0.1H14.2v-0.1h-0.5c-0.5,0-1,0-1.5-0.1H12
									c-0.2,0-0.5-0.1-0.7-0.1l-0.9-0.2L9.8,228c-0.5-0.1-1.1-0.3-1.6-0.5l-0.1-0.1c-0.2-0.1-0.4-0.2-0.6-0.3L7.4,227
									c-0.5-0.3-1-0.5-1.4-0.9l-0.4-0.3L5,225.3c-0.3-0.2-0.6-0.5-0.8-0.7l-0.2,0c-0.3-0.3-0.5-0.5-0.7-0.8
									c-0.3-0.4-0.6-0.8-0.8-1.2L2.1,222l-0.3-0.6c-0.2-0.3-0.3-0.6-0.5-0.9L1.1,220c-0.1-0.2-0.2-0.4-0.3-0.7l-0.1-0.4
									c-0.1-0.3-0.2-0.6-0.3-0.9l-0.2-0.8l0.1-0.2c-0.2-0.7-0.3-1.5-0.3-2.2v-0.2V14.2v-0.5c0-0.5,0-1,0.1-1.5V12
									c0-0.2,0.1-0.5,0.1-0.7v-0.1c0.1-0.6,0.3-1.1,0.5-1.6L1,9.1l0.4-0.9C1.5,8,1.5,7.8,1.6,7.6l0.1-0.2C2,6.9,2.3,6.5,2.6,6
									l0.3-0.4L3.4,5c0.2-0.3,0.5-0.6,0.7-0.8l0.1-0.1C4.5,3.8,4.7,3.6,5,3.4l0.6-0.5L6,2.6C6.5,2.3,6.9,2,7.4,1.7l0.5-0.2
									l0.6-0.3c0.3-0.1,0.6-0.3,1-0.4l0.3-0.1c0.3-0.1,0.6-0.2,0.9-0.3l0.5-0.1c0.2,0,0.5-0.1,0.7-0.1l0.5-0.1
									c0.3,0,0.5-0.1,0.8-0.1l1-0.1h199.1l0.9,0.1c0.3,0,0.5,0,0.8,0.1l0.6,0.1c0.2,0,0.5,0.1,0.7,0.1l0.5,0.1
									c0.3,0.1,0.6,0.2,0.9,0.3l0.4,0.1c0.2,0.1,0.4,0.2,0.7,0.3l0.4,0.2c0.3,0.1,0.6,0.3,0.9,0.5h0.1c0.4,0.2,0.7,0.4,1.1,0.7
									l0.6,0.4l0.6,0.5c0.3,0.2,0.6,0.5,0.8,0.7l0.1,0.1c0.3,0.3,0.5,0.5,0.7,0.8l0.5,0.6l0.3,0.4c0.3,0.4,0.6,0.9,0.8,1.4
									l0.1,0.2c0.1,0.2,0.2,0.4,0.3,0.6l0.2,0.5c0.1,0.2,0.2,0.4,0.3,0.7l0.1,0.4c0.1,0.3,0.2,0.6,0.3,0.9l0.1,0.5
									c0.1,0.2,0.1,0.5,0.1,0.7l0.1,0.6c0,0.3,0.1,0.5,0.1,0.8v0.5c0,0.3,0,0.5,0,0.8L227.4,214.6L227.4,214.6z"/>
							</g>
						</g>
					</g>
				</g>
				<rect x="20.5" y="195.3" class="st2" width="198.6" height="26.4"/>
				<text transform="matrix(1 0 0 1 44.3718 212.4942)" class="st3 st4 st5">FURNITURE</text>
			</g>
		</g>
	</g>
	<g id="Layer_2_1_">
		<g>
			<g id="XMLID_3_">
				<g>
					<polygon class="st3" points="157.1,109.6 114.1,134.2 70.3,105.3 114.1,83.2 					"/>
				</g>
				<g>
					<polyline class="st6" points="70.3,48 114.1,23.4 114.1,83.2 157.1,109.6 114.1,134.2 70.3,105.3 114.1,83.2 					"/>
					<polyline class="st6" points="70.3,48 70.3,105.3 70.3,149.8 					"/>
					<line class="st6" x1="114.1" y1="134.2" x2="114.1" y2="177.8"/>
					<line class="st6" x1="157.1" y1="109.6" x2="157.1" y2="153.8"/>
				</g>
			</g>
		</g>
	</g>
</g>
<g id="Layer_2_2_">
</g>
</svg>
