<?xml version="1.0" encoding="UTF-8"?>
<svg width="18px" height="18px" viewBox="0 0 339 339" version="1.1" xmlns="http://www.w3.org/2000/svg" xmlns:xlink="http://www.w3.org/1999/xlink">
    <title>Shape</title>
    <g id="Page-1" stroke="none" stroke-width="1" fill="none" fill-rule="evenodd">
        <path d="M261.252444,160.130056 C261.189704,158.138037 261.158333,157.542 261.048537,154.875519 L260.891685,151.816907 C260.90737,152.130611 260.734833,149.322963 260.766204,149.620981 L260.703463,148.67987 L241.661648,149.934685 L241.661648,149.997426 C241.740074,151.111074 241.802815,152.146296 241.865556,153.27563 C241.865556,153.259944 242.257685,164.757185 242.257685,164.7415 L242.27337,165.13363 L242.257685,164.976778 L242.27337,165.431648 L242.27337,165.761037 L242.27337,165.604185 L242.27337,166.074741 L242.27337,165.933574 L242.27337,166.40413 L242.27337,166.247278 L242.289056,166.796259 L242.27337,166.639407 L242.289056,167.266815 L242.289056,167.109963 L242.289056,167.815796 L242.289056,167.658944 L242.289056,168.600056 L242.289056,168.458889 L242.289056,169.4 C242.289056,183.908796 241.253833,199.060685 238.932426,214.102778 C245.880963,212.14213 252.688333,209.836407 259.134944,207.138556 C260.656407,194.590407 261.377926,181.979519 261.377926,169.415685 C261.362241,167.423667 261.346556,165.431648 261.315185,163.43963 L261.252444,160.130056 L261.252444,160.130056 Z M65.6581852,242.712556 L12.5481481,227.294019 L22.869,216.141852 C9.67775926,203.750556 0,187.939889 0,169.4 C0.0941111111,155.03237 5.48981481,142.876352 14.3048889,131.771241 C27.3235926,115.913519 45.8948519,104.196685 66.6777222,95.8051111 C64.8582407,103.396741 63.352463,111.066796 62.1447037,118.799593 C53.0786667,123.379667 44.7498333,128.77537 37.518963,135.080815 C28.6882037,142.923407 21.2847963,152.616852 19.4966852,164.28663 C18.3046111,172.129222 19.9201852,179.579685 23.5591481,186.512537 C26.6491296,192.378796 31.0566667,197.664704 35.824963,202.119296 L46.1301296,190.96713 L65.6581852,242.712556 L65.6581852,242.712556 Z M131.755556,79.7277963 C144.931111,78.1122222 157.730222,77.4063889 169.4,77.4063889 C197.084352,77.4063889 225.113778,80.8885 251.684481,88.7310926 C288.074111,99.4754444 338.533352,125.308944 338.8,169.4 C338.705889,183.751944 333.32587,195.907963 324.510796,207.013074 C290.771963,248.13963 219.655333,261.393611 169.4,261.393611 C155.440185,261.393611 140.821593,260.546611 127.097056,258.538907 L129.685111,239.638259 C142.546963,241.520481 156.334241,242.304741 169.415685,242.304741 C211.922537,242.304741 268.200981,232.564241 301.296722,203.719185 C311.397981,194.747259 319.601333,183.3755 319.726815,169.4 C319.522907,146.578056 297.610704,129.936074 279.353148,120.24263 C246.633852,103.098722 205.993537,96.4795741 169.4,96.4795741 C155.534296,96.4795741 140.194185,97.5147963 124.665852,99.9146296 C126.65787,92.9817778 129.010648,86.221463 131.755556,79.7277963 L131.755556,79.7277963 Z M219.969037,276.592556 C227.592037,275.400481 235.262093,273.941759 242.853722,272.153648 C229.521315,304.512185 205.617093,338.580407 169.4,338.8 C155.03237,338.705889 142.876352,333.32587 131.771241,324.510796 C90.6446852,290.756278 77.4063889,219.655333 77.4063889,169.4 C77.4063889,141.731333 80.8885,113.686222 88.7310926,87.1155185 C99.4754444,50.7258889 125.308944,0.266648148 169.4,0 C192.206259,0 210.604981,14.5244815 223.764852,31.9664074 L235.967926,22.9160556 L245.535889,77.3593333 L196.221667,52.3728333 L208.424741,43.3224815 C199.311648,30.9782407 185.445944,19.0888704 169.4,19.0888704 C146.578056,19.2927778 129.936074,41.2206667 120.24263,59.4782222 C103.098722,92.1661481 96.4795741,132.806463 96.4795741,169.4 C96.4795741,211.906852 106.220074,268.185296 135.080815,301.281037 C144.052741,311.382296 155.408815,319.585648 169.4,319.71113 C192.221944,319.507222 208.863926,297.595019 218.55737,279.337463 L219.969037,276.592556 Z" id="Shape" fill="white" fill-rule="nonzero"></path>
    </g>
</svg>
