<svg width="18px" height="18px" viewBox="0 0 84 78" version="1.1" xmlns="http://www.w3.org/2000/svg" xmlns:xlink="http://www.w3.org/1999/xlink">
    <title>Feedback icon</title>
    <g id="Page-1" stroke="none" stroke-width="1" fill="#337AB7" fill-rule="evenodd">
        <path d="M80.9,0.8 L3.1,0.8 C1.44314575,0.8 0.1,2.14314575 0.1,3.8 L0.1,74.2 C0.0797022537,75.4111346 0.789746686,76.5156482 1.9,77 L3.1,77.3 C3.84271567,77.2901225 4.55535935,77.005065 5.1,76.5 L21.7,61.1 L80.9,61.1 C82.5568542,61.1 83.9,59.7568542 83.9,58.1 L83.9,3.8 C83.9,2.14314575 82.5568542,0.8 80.9,0.8 Z M45,46.4 L16.7,46.4 L16.7,40.4 L45,40.4 L45,46.4 Z M67,33.6 L16.7,33.6 L16.7,27.6 L67,27.6 L67,33.6 Z M67,20.8 L16.7,20.8 L16.7,14.8 L67,14.8 L67,20.8 Z" id="Shape" fill-rule="nonzero"></path>
    </g>
</svg>
