<?xml version="1.0" encoding="utf-8"?>
<!-- Generator: Adobe Illustrator 21.1.0, SVG Export Plug-In . SVG Version: 6.00 Build 0)  -->
<svg version="1.1" xmlns="http://www.w3.org/2000/svg" xmlns:xlink="http://www.w3.org/1999/xlink" x="0px" y="0px"
	 viewBox="0 0 227.4 228.8" style="enable-background:new 0 0 227.4 228.8;" xml:space="preserve">
<style type="text/css">
	.st0{display:none;}
	.st1{display:inline;}
	.st2{fill:#FFFFFF;stroke:#000000;stroke-miterlimit:10;}
	.st3{fill:#FFAA3F;}
	.st4{fill:none;stroke:#FFAA3F;stroke-miterlimit:10;}
	.st5{fill:none;}
	.st6{fill:#FFFFFF;}
	.st7{font-family:'Arial'; font-weight: bold;}
	.st8{font-size:24px;}
	.st9{letter-spacing:28;}
	.st10{fill:#46B755;}
	.st11{fill:none;stroke:#F7F7F9;stroke-width:2;stroke-miterlimit:10;}
	.st12{fill:#3A5CED;}
	.st13{fill:#F7F7F9;}
	.st14{fill:none;stroke:#F9F9F9;stroke-width:3;stroke-miterlimit:10;}
	.st15{font-family:'ArialMT';}
</style>
<g id="Layer_1" class="st0">
	<g id="Layer_1_1_" class="st1">
		<g id="Layer_2">
			<rect x="28" y="14.2" class="st2" width="164.3" height="164.3"/>
		</g>
		<g>
			<g id="XMLID_1_">
				<g>
					<path class="st3" d="M165.2,100.2l-0.8,0.1h-0.8l-0.8-0.1l-0.6-0.2l0.8,0.5l1,0.4l1,0.3l1.1,0.3l1.1,0.1h1.1l1.1-0.1l1.1-0.2
						l1.1-0.3l1-0.4l0.9-0.5l0.9-0.6l0.8-0.7L176,98l0.7-0.9l0.6-0.9l-0.8-0.7l-0.9-0.6l-0.9-0.6l-1-0.4l-1.1-0.4l-1.1-0.2l-1.1-0.1
						h-1.1l-1.1,0.1l-1.1,0.2l-1.1,0.4l-1,0.4l-1,0.5l-0.9,0.6l-0.8,0.7l-0.3,0.3l0,0l0.6-0.4l0.7-0.3l0.7-0.2h0.7h0.8l0.7,0.2
						l0.6,0.3l0.6,0.4l0.5,0.5l0.4,0.6l0.3,0.6l-0.5,0.6l-0.6,0.5l-0.7,0.5L166,100L165.2,100.2z M150.7,122.5l0.5,1.5l0.6,1.5
						l0.7,1.5l0.8,1.4l0.9,1.3l1,1.3l1.1,1.2l1.2,1.1l1.3,1.1l1.3,0.9l1.4,0.9l1.4,0.8l1.5,0.7l1.5,0.6l1.6,0.5l1.6,0.3l1.6,0.2
						l1.6,0.1h1.6l1.6-0.1l1.6-0.2l1.6-0.3l-0.3-1.6l-0.4-1.5l-0.5-1.5l-0.6-1.5l-0.8-1.5l-0.8-1.4l-0.9-1.4l-1-1.3l-1.1-1.2
						l-1.2-1.1l-1.2-1.1l-1.3-1l-1.4-0.9l-1.4-0.8l-1.5-0.7l-1.5-0.6l-1.5-0.5l-1.6-0.3l-1.6-0.2l-1.6-0.1l-1.6-0.1l-1.6,0.1v0.1
						l1.6,0.6l1.5,0.7l1.5,0.8l1.4,0.9l1.4,1l1.3,1.1l1.2,1.2l1.1,1.3l1,1.4l0.9,1.4l0.8,1.4l-1.6-0.2l-1.7-0.3l-1.6-0.4l-1.6-0.6
						l-1.6-0.7l-1.5-0.8l-1.5-0.9l-1.4-1l-1.3-1.1l-1.2-1.2L150.7,122.5z M150.7,72.5l1.1-1.2l1.2-1.1l1.3-1.1l1.4-1l1.5-0.9
						l1.5-0.8l1.6-0.7l1.6-0.6l1.6-0.4l1.7-0.3l1.6-0.2l-0.8,1.4l-0.9,1.4l-1,1.4l-1.1,1.3l-1.2,1.2l-1.3,1.1l-1.4,1l-1.4,0.9
						l-1.5,0.8l-1.5,0.7l-1.6,0.6l0,0l1.6,0.1h1.6l1.6-0.1l1.6-0.2l1.6-0.3l1.5-0.5l1.5-0.6l1.5-0.7l1.4-0.8l1.4-0.9l1.3-1l1.2-1.1
						l1.2-1.1l1.1-1.2l1-1.3l0.9-1.4l0.8-1.4l0.8-1.5l0.6-1.5l0.5-1.5l0.4-1.5l0.3-1.5l-1.6-0.3l-1.6-0.2l-1.6-0.1h-1.6l-1.6,0.1
						l-1.6,0.2l-1.6,0.4l-1.6,0.5l-1.5,0.6l-1.5,0.7l-1.4,0.8l-1.4,0.9l-1.3,0.9l-1.3,1.1l-1.2,1.1l-1.1,1.2l-1,1.3l-0.9,1.3
						l-0.8,1.4l-0.7,1.5l-0.6,1.5L150.7,72.5z M139.1,47.8l0.7-0.1h0.7l0.7,0.1h0.1l0.2,0.8l0.1,0.8v0.8l-0.2,0.8l-0.3,0.8l-0.4,0.8
						l-0.5,0.7l-0.6,0.6l-0.6,0.4l0.9-0.4l1-0.5l0.9-0.7l0.8-0.8l0.8-0.8l0.7-0.9l0.5-0.9l0.5-1l0.3-1l0.2-1.1l0.1-1.1V44l-0.1-1.1
						l-0.2-1.1l-0.3-1.1l-0.4-1l-1.1,0.2l-1,0.3l-1,0.4l-0.9,0.6l-0.9,0.6l-0.8,0.8l-0.7,0.8l-0.7,0.9l-0.5,1l-0.5,1l-0.4,1.1
						l-0.2,1.1l-0.1,1.1v1.1l0.1,1.1l0.2,1.1l-0.1-0.7v-0.8l0.1-0.7l0.3-0.7l0.4-0.6l0.4-0.5l0.6-0.5l0.6-0.4L139.1,47.8z
						 M141.2,147.3l-0.7,0.1h-0.7l-0.7-0.1l-0.7-0.3l-0.6-0.3l-0.6-0.5l-0.4-0.5l-0.4-0.6l-0.3-0.7l-0.1-0.7v-0.8l0.1-0.7l-0.2,1.1
						l-0.1,1.1v1.1l0.1,1.1l0.2,1.1l0.4,1.1l0.5,1l0.5,1l0.7,0.9l0.7,0.8l0.8,0.8l0.9,0.6l0.9,0.6l1,0.4l1,0.4l1.1,0.2l0.4-1
						l0.3-1.1l0.2-1.1l0.1-1.1v-1.1l-0.1-1.1l-0.2-1.1l-0.3-1l-0.5-1L144,145l-0.7-0.9l-0.8-0.8l-0.8-0.8l-0.9-0.7l-1-0.5l-0.9-0.4
						l0.6,0.4l0.6,0.6l0.5,0.7l0.4,0.8l0.3,0.8l0.2,0.8v0.8l-0.1,0.8L141.2,147.3L141.2,147.3z M112.4,34l0.7-1.5l0.8-1.5l0.8,1.5
						l0.7,1.5l0.6,1.6l0.4,1.6l0.3,1.7l0.2,1.7l0.1,1.7V44l-0.1,1.7l-0.3,1.7l-0.3,1.6l1-1.2l0.9-1.4L119,45l0.7-1.5l0.6-1.5
						l0.5-1.5l0.4-1.6l0.3-1.6l0.2-1.6v-1.6v-1.6l-0.2-1.6l-0.3-1.6l-0.4-1.6L120,26l-0.6-1.5l-0.7-1.5l-0.8-1.5l-0.9-1.3l-1-1.3
						l-1.1-1.2l-1.1-1.1l-1.1,1.1l-1.1,1.2l-1,1.3l-0.9,1.3L109,23l-0.7,1.5l-0.6,1.5l-0.5,1.5l-0.4,1.6l-0.3,1.6l-0.2,1.6v1.6v1.6
						l0.2,1.6l0.3,1.6l0.4,1.6l0.5,1.5l0.6,1.5l0.7,1.5l0.8,1.4l0.9,1.4l1,1.3l-0.4-1.6l-0.3-1.7l-0.1-1.7v-1.7l0.1-1.7l0.2-1.7
						l0.3-1.7l0.4-1.6L112.4,34z M113.1,162.6l-0.7-1.6l-0.6-1.6l-0.4-1.6l-0.3-1.7l-0.2-1.7l-0.1-1.7V151l0.1-1.7l0.3-1.7l0.4-1.6
						l-1,1.3l-0.9,1.4l-0.8,1.4l-0.7,1.5l-0.6,1.5l-0.5,1.5l-0.4,1.6l-0.3,1.6l-0.2,1.6v1.6v1.6l0.2,1.6l0.3,1.6l0.4,1.6l0.5,1.5
						l0.6,1.5l0.7,1.5l0.8,1.4l0.9,1.3l1,1.3l1.1,1.2l1.1,1.2l1.1-1.2l1.1-1.2l1-1.3l0.9-1.3l0.8-1.4l0.7-1.5l0.6-1.5l0.5-1.5
						l0.4-1.6l0.3-1.6l0.2-1.6V161v-1.6l-0.2-1.6l-0.3-1.6l-0.4-1.6l-0.5-1.5l-0.6-1.5l-0.7-1.5l-0.8-1.4l-0.9-1.4l-1-1.2l0.3,1.6
						l0.3,1.7l0.1,1.7v1.7l-0.1,1.7l-0.2,1.7l-0.3,1.7l-0.4,1.6l-0.6,1.6l-0.7,1.6l-0.8,1.5L113.1,162.6z M84.2,75.3l2.4,2.5
						l2.3,2.6l2.2,2.7l2.2,2.8l2,2.9l1.9,2.9l1.8,3l1.8,3l1.6,3.1l1.5,3.2l1.5,3.2l1.3,3.3l1.2,3.3l1.1,3.3l1,3.4l0.9,3.4l0.8,3.4
						l0.7,3.4l0.5,3.5l0.4,3.4h0.1l0.3-3.2l0.4-3.2l0.5-3.1l0.6-3.1l0.7-3.1l0.8-3l1-3l1-3l1.2-3l1.2-2.9l1.4-2.9l1.5-2.8l1.5-2.7
						l1.7-2.7l1.8-2.6l1.9-2.6l2-2.5l2-2.4l2.1-2.3l2.2-2.3l2.3-2.2l2.4-2.1l0,0l-2,0.1l-2,0.2l-2,0.3l-2,0.4l-1.9,0.6l-1.9,0.7
						l-1.9,0.8l-1.8,0.9l-1.8,1l-1.7,1.1l-1.6,1.2l-1.5,1.3l-1.5,1.4l-1.4,1.4l-1.3,1.6l-1.2,1.6l-1.2,1.7l-1.1,1.7l0,0l-2.1-2.1
						l-2.2-2.1l-2.3-1.9l-2.3-1.8l-2.4-1.8l-2.5-1.7l-2.6-1.6l-2.6-1.5L92.4,79l-2.7-1.2L87,76.3L84.2,75.3L84.2,75.3z M85.8,52.7
						l0.9,0.7l1,0.5l1,0.4L88,53.8l-0.6-0.6l-0.5-0.7l-0.4-0.8L86.2,51L86,50.2v-0.8l0.1-0.8l0.2-0.8l0,0l0.7-0.1h0.7l0.7,0.1
						l0.7,0.3l0.6,0.4l0.6,0.5l0.5,0.5l0.4,0.6l0.3,0.7l0.1,0.7v0.8L91.5,53l0.2-1.1l0.1-1.1v-1.1l-0.1-1.1l-0.2-1.1L91,46.4l-0.5-1
						l-0.5-1l-0.7-0.9l-0.7-0.8L87.8,42l-0.9-0.6L86,40.8l-1-0.4l-1-0.3l-1.1-0.2l-0.4,1L82.2,42L82,42.9L81.9,44l0.1,1.1l0.1,1.1
						l0.2,1.1l0.3,1l0.5,1l0.5,0.9l0.7,0.9l0.8,0.8L85.8,52.7z M86.1,146.5l-0.1-0.8l0.1-0.8l0.2-0.8l0.3-0.8l0.4-0.8l0.5-0.7
						l0.6-0.6l0.7-0.5l-1,0.4l-1,0.5l-0.9,0.7l-0.8,0.8l-0.8,0.8l-0.7,0.9l-0.5,0.9l-0.5,1l-0.3,1l-0.2,1.1l-0.1,1.1l-0.1,1.1
						l0.1,1.1l0.2,1.1l0.3,1.1l0.4,1L84,155l1-0.4l1-0.4l0.9-0.6l0.9-0.6l0.8-0.8l0.7-0.8l0.7-0.9l0.5-1l0.5-1l0.4-1.1l0.2-1.1
						l0.1-1.1v-1.1l-0.1-1.1l-0.2-1.1l0.1,0.7v0.8l-0.1,0.7l-0.3,0.7l-0.4,0.6l-0.5,0.5l-0.6,0.5l-0.6,0.3l-0.7,0.3l-0.7,0.1H87
						l-0.7-0.1l0,0L86.1,146.5z M63.9,130.2l-1.7,0.3l-1.6,0.2l0.7-1.4l0.9-1.4l1-1.4l1.1-1.3l1.2-1.2l1.3-1.1l1.4-1l1.4-0.9
						l1.5-0.8l1.6-0.7l1.6-0.6v-0.1l-1.6-0.1l-1.6,0.1l-1.6,0.1l-1.6,0.2l-1.6,0.3l-1.6,0.5l-1.5,0.6l-1.5,0.7l-1.4,0.8l-1.4,0.9
						l-1.3,1l-1.2,1.1l-1.2,1.1l-1.1,1.2l-1,1.3l-0.9,1.4l-0.8,1.4l-0.8,1.5l-0.6,1.5l-0.5,1.5l-0.4,1.5l-0.3,1.6l1.6,0.3l1.6,0.2
						l1.6,0.1h1.6l1.6-0.1l1.6-0.2L60,139l1.5-0.5l1.5-0.6l1.5-0.7l1.5-0.8l1.4-0.9l1.3-0.9l1.3-1.1l1.2-1.1l1.1-1.2l1-1.3l0.9-1.3
						l0.8-1.4l0.7-1.5l0.6-1.5l0.5-1.5l-1.1,1.2l-1.2,1.2l-1.3,1.1l-1.4,1l-1.4,0.9l-1.5,0.8l-1.6,0.7l-1.6,0.6L63.9,130.2z
						 M48.7,56.3l0.3,1.5l0.4,1.5l0.5,1.5l0.6,1.5l0.8,1.5l0.8,1.4l0.9,1.4l1,1.3l1.1,1.2l1.2,1.1l1.2,1.1l1.3,1l1.4,0.9l1.4,0.8
						l1.5,0.7l1.5,0.6l1.6,0.5l1.6,0.3l1.6,0.2l1.6,0.1h1.6l1.6-0.1l0,0l-1.5-0.6L71.2,75l-1.5-0.8l-1.4-0.9l-1.4-1l-1.3-1.1
						L64.4,70l-1.1-1.3l-1-1.4l-0.9-1.4l-0.7-1.4l1.6,0.2L64,65l1.6,0.4l1.6,0.6l1.6,0.7l1.5,0.8l1.4,0.9l1.4,1l1.3,1.1l1.2,1.1
						l1.1,1.2l-0.5-1.5l-0.6-1.5l-0.7-1.5L74,66.7l-0.9-1.3l-1-1.3L71,62.9l-1.2-1.1l-1.3-1.1l-1.3-0.9L66,58.9l-1.5-0.8L63,57.5
						l-1.5-0.6L60,56.4L58.4,56l-1.6-0.2l-1.6-0.1h-1.6L52,55.8L50.3,56L48.7,56.3z M50.4,96.1L51,97l0.7,0.9l0.8,0.8l0.8,0.7
						l0.9,0.6l0.9,0.5l1,0.4l1.1,0.3l1.1,0.2l1.1,0.1h1.1l1.1-0.1l1.1-0.3l1-0.3l1-0.4l0.8-0.4l-0.5,0.2l-0.8,0.1h-0.8l-0.8-0.1
						l-0.8-0.3L61,99.6l-1-0.4l-0.6-0.5L58.9,98l0.3-0.6l0.4-0.6l0.5-0.5l0.6-0.4l0.6-0.3l0.7-0.2h0.8h0.7l0.7,0.2l0.7,0.3l0.6,0.4
						l0,0L65.2,96l-0.8-0.7l-0.9-0.6l-1-0.5l-1-0.4l-1-0.4l-1.1-0.2L58.3,93h-1.1l-1.1,0.1L55,93.3l-1,0.4l-1,0.4l-0.9,0.6l-0.9,0.6
						L50.4,96.1z M227.4,14.2v200.4v1.3l-0.2,1.3l-0.3,1.3l-0.4,1.2l-0.5,1.2l-0.6,1.1l-0.8,1.1l-0.8,1l-0.9,0.9l-1,0.8l-1.1,0.8
						l-1.1,0.6l-1.2,0.5l-1.2,0.4l-1.3,0.3l-1.3,0.2h-1.3v0.1H14.2v-0.1h-1.3l-1.3-0.2l-1.3-0.3L9,227.8l-1.2-0.5l-1.2-0.6l-1.1-0.8
						l-1-0.8l-0.9-0.9l-0.8-1L2.1,222l-0.6-1.1L1,219.7l-0.4-1.2l-0.3-1.3L0,215.9v-1.3V14.2v-1.3l0.2-1.3l0.3-1.3L1,9.1l0.5-1.2
						l0.6-1.2l0.8-1.1l0.8-1l0.9-0.9l1-0.8l1.1-0.8l1.2-0.6L9,1l1.2-0.4l1.3-0.3l1.3-0.2L14.2,0l0,0h199.1l0,0l1.3,0.1l1.3,0.2
						l1.3,0.3l1.2,0.4l1.2,0.5l1.1,0.6l1.1,0.8l1,0.8l0.9,0.9l0.8,1l0.8,1.1l0.6,1.2l0.5,1.2l0.4,1.2l0.3,1.3l0.2,1.3L227.4,14.2z
						 M121.7,76.4v-0.9l-0.2-0.9l-0.3-0.9l-0.4-0.8l-0.4-0.8l-0.6-0.7l-0.7-0.7l-0.7-0.6l-0.8-0.4l-0.8-0.4l-0.9-0.3l-0.9-0.2h-0.9
						h-0.9l-0.9,0.2l-0.9,0.3l-0.8,0.4l-0.8,0.4l-0.7,0.6l-0.7,0.7l-0.6,0.7l-0.4,0.8l-0.4,0.8l-0.3,0.9l-0.2,0.9v0.9v0.9l0.2,0.9
						l0.3,0.9l0.4,0.8l0.4,0.8l0.6,0.7l0.7,0.7l0.7,0.6l0.8,0.4l0.8,0.4l0.9,0.3l0.9,0.2l0.9,0.1L115,84l0.9-0.2l0.9-0.3l0.8-0.4
						l0.8-0.4l0.7-0.6l0.7-0.7l0.6-0.7l0.4-0.8l0.4-0.8l0.3-0.9l0.2-0.9C121.7,77.3,121.7,76.4,121.7,76.4z"/>
				</g>
				<g>
					<polyline class="st4" points="168.6,98 168.6,98 168.3,97.4 167.9,96.8 167.3,96.3 166.7,95.9 166.1,95.6 165.4,95.4
						164.6,95.3 163.9,95.4 163.2,95.6 162.6,95.9 161.9,96.3 161.5,96.8 					"/>
					<polyline class="st4" points="177,96.1 177,96.1 176.2,95.4 175.3,94.8 174.4,94.2 173.4,93.7 172.3,93.4 171.3,93.2 170.2,93
						169.1,93 168,93.2 166.9,93.3 165.9,93.7 164.9,94.1 163.9,94.6 163,95.2 162.2,96 161.9,96.2 161.4,96.7 					"/>
					<polyline class="st4" points="161.9,99.8 162,99.9 162.8,100.4 163.8,100.8 164.9,101.2 165.9,101.4 167,101.6 168.1,101.6
						169.2,101.5 170.3,101.2 171.3,100.9 172.4,100.5 173.3,100 174.2,99.3 175.1,98.6 175.8,97.8 176.5,97 177,96.1 177,96
						"/>
					<polyline class="st4" points="161.9,99.9 162,99.9 162.7,100.1 163.5,100.3 164.3,100.3 165.2,100.2 166,100 166.8,99.7
						167.5,99.2 168.1,98.6 168.6,98 168.6,98 					"/>
					<polyline class="st4" points="91.5,52.8 91.5,52.1 91.5,51.4 91.4,50.7 91.1,50 90.7,49.4 90.3,48.9 89.7,48.4 89.1,48
						88.4,47.8 87.7,47.6 87,47.6 86.2,47.8 					"/>
					<polyline class="st4" points="91.5,52.8 91.7,51.8 91.8,50.7 91.7,49.6 91.6,48.5 91.4,47.5 91,46.4 90.5,45.4 90,44.5
						89.3,43.6 88.6,42.8 87.8,42 86.9,41.4 86,40.8 85,40.4 84,40.1 82.9,39.8 82.8,39.8 					"/>
					<polyline class="st4" points="82.9,39.8 82.9,39.8 82.5,40.8 82.2,41.9 82,42.9 81.9,44 81.9,45.1 82.1,46.2 82.3,47.3
						82.6,48.3 83.1,49.3 83.6,50.2 84.3,51.1 85.1,51.9 85.8,52.7 86.7,53.3 87.7,53.9 88.7,54.3 					"/>
					<polyline class="st4" points="86.2,47.7 86.2,47.8 86.1,48.6 86,49.4 86,50.2 86.2,51 86.5,51.8 86.9,52.6 87.4,53.2 88,53.8
						88.7,54.3 					"/>
					<polyline class="st4" points="86.2,147.3 87,147.4 87.7,147.4 88.4,147.3 89.1,147 89.7,146.6 90.3,146.2 90.7,145.6 91.1,145
						91.4,144.4 91.5,143.6 91.5,142.9 91.5,142.2 					"/>
					<polyline class="st4" points="82.8,155.2 82.9,155.2 84,155 85,154.6 86,154.2 86.9,153.6 87.8,153 88.6,152.2 89.3,151.5
						90,150.6 90.5,149.6 91,148.6 91.4,147.6 91.6,146.5 91.7,145.5 91.8,144.4 91.7,143.2 91.5,142.2 					"/>
					<polyline class="st4" points="88.7,140.7 87.7,141.2 86.7,141.7 85.8,142.4 85.1,143.1 84.3,143.9 83.6,144.8 83.1,145.7
						82.6,146.7 82.3,147.7 82.1,148.8 81.9,149.9 81.9,151 82,152.1 82.2,153.2 82.5,154.2 82.9,155.2 82.9,155.2 					"/>
					<polyline class="st4" points="88.7,140.7 88,141.2 87.4,141.8 86.9,142.5 86.5,143.2 86.2,144 86,144.8 86,145.6 86.1,146.5
						86.2,147.3 86.2,147.3 					"/>
					<line class="st4" x1="14.2" y1="0" x2="213.3" y2="0"/>
					<polyline class="st4" points="150.7,122.4 150.7,122.5 151.2,124 151.8,125.5 152.6,126.9 153.4,128.3 154.3,129.7
						155.3,130.9 156.4,132.1 157.5,133.3 158.8,134.3 160.1,135.3 161.5,136.1 162.9,136.9 164.4,137.6 165.9,138.1 167.5,138.6
						169.1,139 170.6,139.2 172.3,139.3 173.9,139.4 175.5,139.3 177.1,139.1 178.7,138.7 					"/>
					<polyline class="st4" points="150.7,122.4 150.7,122.5 151.8,123.7 153,124.8 154.4,125.9 155.7,126.9 157.2,127.8
						158.7,128.5 160.3,129.2 161.9,129.7 163.5,130.2 165.2,130.5 166.8,130.7 166.8,130.7 					"/>
					<polyline class="st4" points="166.8,130.8 166.8,130.7 166,129.3 165.1,127.9 164.1,126.5 163,125.2 161.8,124 160.5,122.9
						159.2,121.9 157.8,120.9 156.3,120.1 154.7,119.4 153.1,118.8 153.1,118.8 					"/>
					<polyline class="st4" points="178.7,138.7 178.4,137.2 178,135.6 177.5,134.1 176.9,132.6 176.1,131.1 175.3,129.7
						174.4,128.3 173.4,127.1 172.3,125.9 171.1,124.8 169.9,123.7 168.6,122.7 167.2,121.9 165.8,121.1 164.3,120.4 162.8,119.9
						161.2,119.4 159.7,119 158,118.8 156.4,118.7 154.8,118.6 153.2,118.7 					"/>
					<polyline class="st4" points="76.7,72.6 76.7,72.5 76.2,71.1 75.6,69.6 74.9,68.1 74,66.7 73.1,65.4 72.1,64.1 71,62.9
						69.9,61.8 68.6,60.7 67.3,59.8 66,58.9 64.5,58.1 63,57.5 61.5,56.9 60,56.4 58.4,56.1 56.8,55.8 55.1,55.7 53.5,55.7
						51.9,55.8 50.3,56 48.7,56.3 48.7,56.3 					"/>
					<polyline class="st4" points="76.8,72.6 76.7,72.5 75.6,71.4 74.4,70.2 73.1,69.1 71.7,68.2 70.2,67.3 68.7,66.5 67.1,65.9
						65.6,65.3 63.9,64.8 62.2,64.5 60.7,64.4 60.6,64.4 					"/>
					<polyline class="st4" points="60.6,64.3 60.7,64.4 61.4,65.8 62.3,67.2 63.3,68.6 64.4,69.9 65.6,71.1 66.9,72.2 68.2,73.2
						69.7,74.1 71.2,75 72.7,75.7 74.3,76.3 74.3,76.3 					"/>
					<polyline class="st4" points="48.7,56.2 48.7,56.3 49,57.8 49.5,59.4 49.9,60.9 50.6,62.4 51.3,63.9 52.1,65.3 53,66.7
						54,67.9 55.1,69.1 56.3,70.2 57.5,71.3 58.8,72.3 60.2,73.1 61.6,73.9 63.1,74.6 64.6,75.1 66.2,75.6 67.8,76 69.4,76.2
						71,76.3 72.6,76.4 74.2,76.3 					"/>
					<line class="st4" x1="227.4" y1="214.6" x2="227.4" y2="14.2"/>
					<polyline class="st4" points="227.4,14.2 227.4,12.9 227.2,11.6 226.9,10.3 226.4,9.1 225.9,7.9 225.3,6.7 224.5,5.7
						223.7,4.7 222.8,3.7 221.8,2.9 220.7,2.2 219.6,1.5 218.4,1 217.1,0.6 215.9,0.3 214.6,0.1 213.3,0 					"/>
					<polyline class="st4" points="136,142.2 135.9,142.9 135.9,143.6 136.1,144.4 136.3,145 136.7,145.6 137.2,146.2 137.7,146.6
						138.3,147 139.1,147.3 139.8,147.4 140.5,147.4 141.2,147.3 					"/>
					<polyline class="st4" points="136,142.2 135.7,143.2 135.7,144.4 135.7,145.5 135.8,146.5 136.1,147.6 136.4,148.6
						136.9,149.6 137.4,150.6 138.1,151.5 138.8,152.2 139.6,153 140.5,153.6 141.4,154.2 142.4,154.6 143.5,155 144.5,155.2
						144.6,155.2 					"/>
					<polyline class="st4" points="144.5,155.2 144.5,155.2 145,154.2 145.2,153.2 145.4,152.1 145.5,151 145.5,149.9 145.4,148.8
						145.1,147.7 144.8,146.7 144.3,145.7 143.8,144.8 143.1,143.9 142.4,143.1 141.6,142.4 140.7,141.7 139.7,141.2 138.9,140.8
						138.7,140.7 					"/>
					<polyline class="st4" points="141.2,147.3 141.2,147.3 141.4,146.5 141.5,145.6 141.4,144.8 141.3,144 140.9,143.2
						140.6,142.5 140.1,141.8 139.4,141.2 138.9,140.8 138.8,140.7 					"/>
					<polyline class="st4" points="66,96.8 65.5,96.3 64.9,95.9 64.2,95.6 63.5,95.4 62.8,95.3 62.1,95.4 61.4,95.6 60.7,95.9
						60.1,96.3 59.6,96.8 59.2,97.4 58.9,98 58.8,98 					"/>
					<polyline class="st4" points="66,96.7 65.5,96.3 65.2,96 64.4,95.2 63.5,94.6 62.6,94.1 61.5,93.7 60.5,93.3 59.4,93.2
						58.3,93 57.2,93 56.2,93.2 55.1,93.4 54,93.7 53,94.2 52.1,94.8 51.2,95.4 50.4,96.1 50.4,96.1 					"/>
					<polyline class="st4" points="50.4,96 50.4,96.1 51,97 51.6,97.8 52.4,98.6 53.2,99.3 54.1,100 55.1,100.5 56.1,100.9
						57.1,101.2 58.2,101.5 59.3,101.6 60.4,101.6 61.5,101.4 62.6,101.2 63.6,100.8 64.6,100.4 65.3,100 65.6,99.8 					"/>
					<polyline class="st4" points="58.8,98 58.9,98 59.4,98.6 60,99.2 60.7,99.7 61.5,100 62.3,100.2 63.1,100.3 64,100.3
						64.8,100.1 65.3,100 65.6,99.9 					"/>
					<line class="st4" x1="0" y1="214.6" x2="0" y2="14.2"/>
					<polyline class="st4" points="14.2,0 12.8,0.1 11.6,0.3 10.3,0.6 9,1 7.9,1.5 6.7,2.2 5.6,2.9 4.6,3.7 3.7,4.7 2.9,5.7
						2.1,6.7 1.5,7.9 1,9.1 0.5,10.3 0.2,11.6 0,12.9 0,14.2 					"/>
					<polyline class="st4" points="178.7,56.3 178.7,56.3 177.1,56 175.5,55.8 173.9,55.7 172.3,55.7 170.6,55.8 169.1,56.1
						167.5,56.4 165.9,56.9 164.4,57.5 162.9,58.1 161.5,58.9 160.1,59.8 158.8,60.7 157.5,61.8 156.4,62.9 155.3,64.1 154.3,65.4
						153.4,66.7 152.6,68.1 151.8,69.6 151.2,71.1 150.7,72.5 150.7,72.6 					"/>
					<polyline class="st4" points="166.8,64.4 166.8,64.4 165.2,64.5 163.5,64.8 161.9,65.3 160.3,65.9 158.7,66.5 157.2,67.3
						155.7,68.2 154.4,69.1 153,70.2 151.8,71.4 150.7,72.5 150.7,72.6 					"/>
					<polyline class="st4" points="153.1,76.3 153.2,76.3 154.7,75.7 156.3,75 157.8,74.1 159.2,73.2 160.5,72.2 161.8,71.1
						163,69.9 164.1,68.6 165.1,67.2 166,65.8 166.8,64.4 166.8,64.3 					"/>
					<polyline class="st4" points="153.2,76.3 154.8,76.4 156.4,76.3 158,76.2 159.7,76 161.2,75.6 162.8,75.1 164.3,74.6
						165.8,73.9 167.2,73.1 168.6,72.3 169.9,71.3 171.1,70.2 172.3,69.1 173.4,67.9 174.4,66.7 175.3,65.3 176.1,63.9 176.9,62.4
						177.5,60.9 178,59.4 178.4,57.8 178.7,56.3 178.7,56.2 					"/>
					<polyline class="st4" points="111.6,146.1 110.6,147.4 109.7,148.7 108.9,150.1 108.3,151.6 107.6,153.1 107.2,154.7
						106.8,156.3 106.5,157.9 106.3,159.4 106.3,161.1 106.3,162.7 106.5,164.3 106.8,165.9 107.2,167.5 107.6,169.1 108.3,170.6
						109,172 109.8,173.5 110.6,174.8 111.6,176.1 112.7,177.3 113.8,178.5 					"/>
					<polyline class="st4" points="111.6,146.1 111.3,147.7 110.9,149.4 110.8,151.1 110.8,152.8 110.9,154.5 111.1,156.1
						111.4,157.8 111.8,159.4 112.4,161 113.1,162.6 113.8,164.1 113.9,164.1 					"/>
					<polyline class="st4" points="113.8,164.1 113.8,164.1 114.6,162.6 115.3,161 115.8,159.4 116.3,157.8 116.6,156.1
						116.8,154.5 116.9,152.8 116.9,151.1 116.7,149.4 116.4,147.7 116.1,146.1 116.1,146.1 					"/>
					<polyline class="st4" points="113.8,178.5 115,177.3 116,176.1 117,174.8 117.9,173.5 118.7,172 119.4,170.6 120,169.1
						120.5,167.5 120.9,165.9 121.1,164.3 121.3,162.7 121.4,161.1 121.3,159.4 121.1,157.9 120.9,156.3 120.5,154.7 120,153.1
						119.4,151.6 118.7,150.1 117.9,148.7 117,147.4 116.1,146.1 116,146.1 					"/>
					<polyline class="st4" points="48.7,138.7 50.3,139.1 51.9,139.3 53.5,139.4 55.1,139.3 56.8,139.2 58.4,139 60,138.6
						61.5,138.1 63,137.6 64.5,136.9 66,136.1 67.3,135.3 68.6,134.3 69.9,133.3 71,132.1 72.1,130.9 73.1,129.7 74,128.3
						74.9,126.9 75.6,125.5 76.2,124 76.7,122.5 76.7,122.4 					"/>
					<polyline class="st4" points="60.6,130.7 60.7,130.7 62.2,130.5 63.9,130.2 65.6,129.7 67.1,129.2 68.7,128.5 70.2,127.8
						71.7,126.9 73.1,125.9 74.4,124.8 75.6,123.7 76.7,122.5 76.8,122.4 					"/>
					<polyline class="st4" points="74.3,118.8 74.3,118.8 72.7,119.4 71.2,120.1 69.7,120.9 68.2,121.9 66.9,122.9 65.6,124
						64.4,125.2 63.3,126.5 62.3,127.9 61.4,129.3 60.7,130.7 60.6,130.8 					"/>
					<polyline class="st4" points="74.2,118.7 72.6,118.6 71,118.7 69.4,118.8 67.8,119 66.2,119.4 64.6,119.9 63.1,120.4
						61.6,121.1 60.2,121.9 58.8,122.7 57.5,123.7 56.3,124.8 55.1,125.9 54,127.1 53,128.3 52.1,129.7 51.3,131.1 50.6,132.6
						49.9,134.1 49.5,135.6 49,137.2 48.7,138.7 					"/>
					<line class="st4" x1="14.2" y1="228.8" x2="213.3" y2="228.8"/>
					<polyline class="st4" points="213.3,228.7 214.6,228.7 215.9,228.5 217.1,228.2 218.4,227.8 219.6,227.2 220.7,226.6
						221.8,225.9 222.8,225 223.7,224.1 224.5,223.1 225.3,222 225.9,220.9 226.4,219.7 226.9,218.5 227.2,217.2 227.4,215.9
						227.4,214.6 					"/>
					<polyline class="st4" points="0,214.6 0,215.9 0.2,217.2 0.5,218.5 1,219.7 1.5,220.9 2.1,222 2.9,223.1 3.7,224.1 4.6,225
						5.6,225.9 6.7,226.6 7.9,227.2 9,227.8 10.3,228.2 11.6,228.5 12.8,228.7 14.2,228.7 					"/>
					<polyline class="st4" points="144,76.6 144,76.6 141.7,78.7 139.4,81 137.2,83.2 135,85.6 133,88 131,90.5 129.2,93.1
						127.4,95.7 125.7,98.5 124.2,101.2 122.7,104 121.3,106.9 120.1,109.8 118.9,112.8 117.9,115.8 116.9,118.8 116.1,121.9
						115.4,125 114.7,128.1 114.3,131.2 113.9,134.4 113.6,137.6 					"/>
					<polyline class="st4" points="113.5,137.6 113.1,134.1 112.5,130.6 111.9,127.2 111.1,123.7 110.2,120.4 109.2,117
						108.1,113.7 106.8,110.4 105.5,107.2 104.1,104 102.5,100.8 100.9,97.7 99.1,94.7 97.3,91.7 95.3,88.8 93.3,85.9 91.1,83.2
						88.9,80.5 86.6,77.8 84.2,75.3 84.2,75.3 					"/>
					<polyline class="st4" points="113.8,16.6 112.7,17.7 111.6,18.9 110.6,20.2 109.8,21.6 109,23 108.3,24.5 107.6,26 107.2,27.5
						106.8,29.1 106.5,30.7 106.3,32.3 106.3,34 106.3,35.6 106.5,37.2 106.8,38.8 107.2,40.4 107.6,41.9 108.3,43.5 108.9,44.9
						109.7,46.3 110.6,47.7 111.6,49 					"/>
					<polyline class="st4" points="113.9,30.9 113.8,31 113.1,32.5 112.4,34 111.8,35.6 111.4,37.2 111.1,38.9 110.9,40.6
						110.8,42.3 110.8,44 110.9,45.7 111.3,47.3 111.6,49 					"/>
					<polyline class="st4" points="116.1,49 116.1,48.9 116.4,47.3 116.7,45.7 116.9,44 116.9,42.3 116.8,40.6 116.6,38.9
						116.3,37.2 115.8,35.6 115.3,34 114.6,32.5 113.8,31 113.8,30.9 					"/>
					<polyline class="st4" points="116,49 116.1,48.9 117,47.7 117.9,46.3 118.7,44.9 119.4,43.5 120,41.9 120.5,40.4 120.9,38.8
						121.1,37.2 121.3,35.6 121.4,34 121.3,32.3 121.1,30.7 120.9,29.1 120.5,27.5 120,26 119.4,24.5 118.7,23 117.9,21.6 117,20.2
						116,18.9 115,17.7 113.8,16.6 					"/>
					<polyline class="st4" points="141.2,47.8 140.5,47.6 139.8,47.6 139.1,47.8 138.3,48 137.7,48.4 137.2,48.9 136.7,49.4
						136.3,50 136.1,50.7 135.9,51.4 135.9,52.1 136,52.8 					"/>
					<polyline class="st4" points="144.6,39.8 144.5,39.8 143.5,40.1 142.4,40.4 141.4,40.8 140.5,41.4 139.6,42 138.8,42.8
						138.1,43.6 137.4,44.5 136.9,45.4 136.4,46.4 136.1,47.5 135.8,48.5 135.7,49.6 135.7,50.7 135.7,51.8 136,52.8 					"/>
					<polyline class="st4" points="138.7,54.3 138.8,54.3 139.7,53.9 140.7,53.3 141.6,52.7 142.4,51.9 143.1,51.1 143.8,50.2
						144.3,49.3 144.8,48.3 145.1,47.3 145.4,46.2 145.5,45.1 145.5,44 145.4,42.9 145.2,41.9 145,40.8 144.5,39.8 144.5,39.8
						"/>
					<polyline class="st4" points="138.8,54.3 138.8,54.3 139.4,53.8 140.1,53.2 140.6,52.6 140.9,51.8 141.3,51 141.4,50.2
						141.5,49.4 141.4,48.6 141.2,47.8 141.2,47.7 					"/>
					<polygon class="st4" points="121.7,76.4 121.7,75.4 121.5,74.6 121.2,73.7 120.8,72.8 120.4,72 119.8,71.3 119.2,70.7
						118.4,70.1 117.7,69.7 116.8,69.3 115.9,69 115.1,68.8 114.1,68.8 113.2,68.8 112.3,69 111.4,69.3 110.6,69.7 109.8,70.1
						109.1,70.7 108.4,71.3 107.9,72 107.4,72.8 107,73.7 106.8,74.6 106.6,75.4 106.5,76.4 106.6,77.3 106.8,78.2 107,79.1
						107.4,79.9 107.9,80.7 108.4,81.4 109.1,82.1 109.8,82.6 110.6,83.1 111.4,83.5 112.3,83.7 113.2,83.9 114.1,84 115.1,83.9
						115.9,83.7 116.8,83.5 117.7,83.1 118.4,82.6 119.2,82.1 119.8,81.4 120.4,80.7 120.8,79.9 121.2,79.1 121.5,78.2 121.7,77.3
											"/>
					<polyline class="st4" points="144,76.6 142,76.8 140,77 138,77.3 136,77.7 134.1,78.3 132.2,79 130.3,79.8 128.5,80.6
						126.7,81.6 125,82.7 123.3,83.9 121.8,85.2 120.3,86.6 118.9,88 117.6,89.5 116.3,91.1 115.2,92.8 114.1,94.5 					"/>
					<polyline class="st4" points="114.1,94.5 114.1,94.5 112,92.4 109.8,90.3 107.6,88.4 105.2,86.6 102.8,84.8 100.3,83.1
						97.8,81.5 95.2,80.1 92.5,78.7 89.8,77.5 87,76.3 84.2,75.3 					"/>
				</g>
			</g>
		</g>
		<rect x="20.5" y="195.3" class="st5" width="198.6" height="26.4"/>
		<text transform="matrix(1 0 0 1 -98.859 212.5153)" class="st6 st7 st8 st9">   </text>
		<text transform="matrix(1 0 0 1 9.141 212.5153)" class="st6 st7 st8">  ACCESSIBILITY</text>
	</g>
	<g id="Layer_2_1_" class="st1">
		<g>
			<g id="XMLID_3_">
				<g>
					<path class="st10" d="M125.8,160.3l-9.9-9.6l0,0l-1.1,0.6l-1.1,0.6l-1.1,0.5l-1.1,0.5l-1.2,0.4l-1.2,0.4l-1.2,0.3l-1.2,0.3
						l-1.2,0.2l-1.2,0.1l-1.2,0.1h-1.3l-1.2-0.1l-1.2-0.1l-1.2-0.2l-1.2-0.2l-1.2-0.3l-1.2-0.3l-1.2-0.4l-1.2-0.4l-1.1-0.5l-1.1-0.6
						l-1.1-0.6l-1-0.7l-1-0.7l-1-0.8L85,148l-0.9-0.9l-0.9-0.9l-0.8-0.9l-0.8-1l-0.7-1l-0.7-1.1l-0.6-1.1L79,140l-0.5-1.1l-0.4-1.2
						l-0.4-1.2l-0.3-1.2l-0.3-1.2l-0.2-1.2l-0.1-1.2l-0.1-1.3v-1.2v-1.3l0.1-1.2l0.1-1.2l0.2-1.2l0.3-1.2l0.3-1.2l0.4-1.2l0.4-1.2
						l0.5-1.1l0.5-1.1l0.6-1.1l0.7-1l0,0l-9.5-9.2l0,0l-0.9,1.2l-0.9,1.3l-0.8,1.3l-0.7,1.3l-0.7,1.4l-0.6,1.4l-0.6,1.4l-0.5,1.4
						l-0.4,1.5l-0.4,1.5l-0.4,1.5l-0.3,1.5l-0.2,1.5l-0.2,1.5l-0.1,1.6l-0.1,1.5v1.5l0.1,1.5l0.1,1.5l0.2,1.5l0.2,1.5l0.3,1.5
						l0.4,1.5l0.4,1.5l0.5,1.5l0.5,1.4l0.6,1.4l0.7,1.4l0.7,1.4l0.8,1.3l0.8,1.3l0.8,1.3l0.9,1.2l1,1.2l1,1.2l1,1.1l1.1,1.1l1.1,1.1
						l1.2,1l1.2,0.9l1.2,0.9l1.3,0.8l1.3,0.8l1.3,0.7l1.3,0.7l1.4,0.6l1.4,0.6l1.4,0.5l1.5,0.5l1.5,0.4l1.5,0.4l1.5,0.3l1.5,0.2
						l1.5,0.2l1.5,0.1l1.5,0.1h1.5l1.5-0.1l1.5-0.1l1.5-0.2l1.5-0.2l1.5-0.3l1.5-0.4l1.5-0.4l1.4-0.5l1.4-0.5l1.4-0.6l1.4-0.7
						l1.4-0.7l1.3-0.8l1.3-0.8l1.3-0.9L125.8,160.3z M130.3,156.3l1-1.1l1-1.2l0.9-1.2l0.9-1.3l0.8-1.3l0.8-1.3l0.7-1.4l0.7-1.4
						l0.6-1.4l0.6-1.4l0.5-1.5l0.4-1.5l0.4-1.5l0.4-1.5l0.3-1.5l0.2-1.5l0.2-1.5l0.1-1.5l0.1-1.5v-1.5l-0.1-1.5l-0.2-1.5l-0.2-1.5
						l-0.3-1.5l-0.3-1.5l-0.4-1.5l-0.5-1.5l-0.5-1.5l-0.5-1.4l-0.6-1.4l-0.7-1.4l0,0h9.5l-2.4,31.3v0.7l0.1,0.7l0.1,0.7l0.2,0.7
						l0.2,0.6l0.3,0.6l0.4,0.6l0.4,0.5l0.4,0.5l0.5,0.5l0.5,0.4l0.6,0.4l0.6,0.3l0.6,0.3l0.6,0.2l0.7,0.2l0.7,0.1l0.7,0.1h0.7
						l0.7-0.1l0.7-0.1l0.7-0.2l0.6-0.3l0.6-0.3l0.6-0.4l0.5-0.4l0.5-0.4l0.4-0.5l0.4-0.6l0.4-0.6l0.3-0.6l0.3-0.6l0.2-0.7l0.1-0.7
						l0.1-0.7v-0.7v-0.7l1.7-40.7l0,0l-0.1-0.6l-0.2-0.6l-0.2-0.6l-0.3-0.6l-0.3-0.6l-0.4-0.5l-0.4-0.5l-0.4-0.4l-0.5-0.4l-0.5-0.3
						l-0.6-0.3l-0.6-0.3l0,0h-27.6l14.6-17l0,0l0.4-0.6l0.3-0.7l0.2-0.7l0.1-0.7l0.1-0.7v-0.7v-0.7l-0.1-0.7l-0.2-0.7l-0.2-0.7
						l-0.3-0.7l-0.3-0.6l-0.4-0.6l0,0l-38.2-23.5l-0.5-0.3l-0.5-0.2l-0.6-0.2l-0.6-0.1h-0.6h-0.6l-0.6,0.1l-0.6,0.1l-0.5,0.2
						L99.1,47l-0.3,0l-0.5,0.4L98,47.8l-0.4,0.5l-0.3,0.5l0,0L80.4,64.5l0,0L80,65l-0.4,0.5L79.2,66l-0.3,0.6l-0.2,0.6l-0.2,0.6
						l-0.1,0.6L78.3,69v0.6v0.7l0.1,0.6l0.2,0.6l0.2,0.6l0.3,0.6l0.3,0.5l0.4,0.6l0.4,0.5l0.4,0.5l0.5,0.4l0.5,0.4l0.6,0.3l0.6,0.3
						l0.6,0.2l0.6,0.2l0.6,0.1l0.7,0.1h0.6l0.7-0.1l0.6-0.1l0.6-0.2l0.6-0.2l0.6-0.3l0.6-0.3l0.5-0.4l0.5-0.4l0,0l12.7-10.7l9.8,7
						L96.7,89.3l0,0l-1.5,0.2l-1.5,0.3l-1.4,0.3l-1.4,0.4L89.5,91l-1.4,0.6l-1.4,0.6L85.4,93l-1.3,0.7l-1.3,0.8l-1.2,0.8l-1.2,0.9
						l-1.1,0.9l-1.1,1l-1.1,1l-1.1,1.1l-1,1.1l9.5,9.2l0.9-0.8l1-0.8l1-0.7l1-0.7l1-0.6l1.1-0.6l1.1-0.5l1.2-0.5l1.2-0.4l1.2-0.3
						l1.2-0.3l1.2-0.2l1.2-0.2l1.2-0.1l1.2-0.1h1.2l1.2,0.1l1.2,0.1l1.2,0.2l1.2,0.2l1.2,0.3l1.2,0.3l1.2,0.4l1.2,0.4l1.1,0.5
						l1.1,0.6l1.1,0.6l1,0.7l1,0.7l1,0.8l0.9,0.8l0.9,0.8l0.8,0.9l0.8,0.9l0.8,1l0.7,1l0.6,1l0.6,1.1l0.6,1.1l0.5,1.1l0.4,1.1
						l0.4,1.2l0.3,1.2l0.3,1.2l0.2,1.2l0.2,1.2l0.1,1.2l0.1,1.2v1.2l-0.1,1.2l-0.1,1.2l-0.2,1.2l-0.3,1.2l-0.3,1.2l-0.3,1.2
						l-0.4,1.2l-0.5,1.1l-0.6,1.1l-0.6,1.1l-0.6,1.1l-0.7,1l-0.7,1l-0.8,1l-0.8,0.9L130.3,156.3z M227.4,15.3v200.2l0,0v0.9
						l-0.1,0.9l-0.1,0.9l-0.2,0.9l-0.3,0.9l-0.3,0.9l-0.4,0.9l-0.4,0.8l-0.5,0.8l-0.5,0.8l-0.6,0.7l-0.6,0.7l-0.7,0.6l-0.7,0.6
						l-0.8,0.5l-0.8,0.5l-0.8,0.4l-0.9,0.4l-0.9,0.3l-0.9,0.3l-0.9,0.2l-0.9,0.1l-0.9,0.1h-0.9l0,0H14.4l0,0h-0.9l-0.9-0.1l-0.9-0.1
						l-0.9-0.2l-0.9-0.3L9,228.6l-0.9-0.4l-0.8-0.4l-0.8-0.5l-0.8-0.5L5,226.2l-0.7-0.6l-0.6-0.7l-0.6-0.7l-0.5-0.8l-0.5-0.8
						l-0.5-0.8l-0.4-0.9L1,220.1l-0.3-0.9l-0.2-0.9l-0.1-0.9l-0.1-0.9v-0.9V15.3v-0.9l0.1-0.9l0.1-0.9l0.2-0.9L1,10.8l0.3-0.9L1.7,9
						l0.5-0.8l0.5-0.8l0.5-0.8L3.8,6l0.6-0.7l0.7-0.6l0.7-0.6l0.8-0.5l0.8-0.5l0.8-0.5L9,2.2l0.9-0.3l0.9-0.3l0.9-0.2l0.9-0.2
						l0.9-0.1h0.9l0,0h198.8l0,0h0.9l0.9,0.1l0.9,0.2l0.9,0.2l0.9,0.3l0.9,0.3l0.9,0.4l0.8,0.5l0.8,0.5l0.8,0.5l0.7,0.6l0.7,0.6
						l0.6,0.7l0.6,0.7l0.5,0.8l0.5,0.8l0.4,0.8l0.4,0.9l0.3,0.9l0.3,0.9l0.2,0.9l0.1,0.9l0.1,0.9L227.4,15.3L227.4,15.3z
						 M159.1,53.9V53l-0.1-0.9l-0.2-0.9l-0.2-0.9l-0.3-0.8l-0.3-0.8l-0.4-0.8l-0.4-0.8l-0.5-0.8l-0.5-0.7l-0.6-0.7l-0.6-0.6
						l-0.7-0.6l-0.7-0.6l-0.7-0.5l-0.8-0.5l-0.8-0.4l-0.8-0.3l-0.8-0.3l-0.8-0.2l-0.9-0.2l-0.9-0.1l-0.9-0.1h-0.9l-0.9,0.1l-0.9,0.1
						l-0.9,0.2l-0.9,0.2l-0.8,0.3l-0.8,0.3l-0.8,0.4l-0.8,0.5l-0.7,0.5l-0.7,0.6l-0.7,0.6l-0.6,0.6l-0.6,0.7l-0.5,0.7l-0.5,0.8
						l-0.4,0.8l-0.4,0.8l-0.3,0.8l-0.3,0.8l-0.2,0.9l-0.1,0.9l-0.1,0.9v0.9v0.9l0.1,0.9l0.1,0.9l0.2,0.9l0.3,0.9l0.3,0.8l0.4,0.8
						l0.4,0.8l0.5,0.8l0.5,0.7l0.6,0.7l0.6,0.6l0.7,0.6l0.7,0.5l0.7,0.5l0.8,0.4l0.8,0.4l0.8,0.3l0.8,0.3l0.9,0.2l0.9,0.2l0.9,0.1
						l0.9,0.1h0.9l0.9-0.1L148,67l0.9-0.2l0.8-0.2l0.8-0.3l0.8-0.3l0.8-0.4l0.8-0.4l0.7-0.5l0.7-0.5l0.7-0.6l0.6-0.6l0.6-0.7
						l0.5-0.7l0.5-0.8l0.4-0.8l0.4-0.8l0.3-0.8l0.3-0.9l0.2-0.9l0.2-0.9l0.1-0.9V53.9z"/>
					<polygon class="st6" points="161.1,102.1 159.4,142.8 159.4,143.5 159.4,144.2 159.3,144.8 159.1,145.5 158.9,146.2
						158.7,146.8 158.3,147.4 158,147.9 157.5,148.5 157.1,149 156.6,149.4 156,149.9 155.5,150.2 154.8,150.5 154.2,150.8
						153.6,151 152.9,151.1 152.2,151.2 151.5,151.2 150.9,151.2 150.2,151.1 149.5,150.9 148.9,150.7 148.3,150.4 147.7,150.1
						147.1,149.7 146.6,149.3 146.1,148.8 145.6,148.3 145.3,147.7 144.9,147.1 144.6,146.5 144.3,145.9 144.2,145.2 144,144.6
						144,143.9 144,143.2 146.3,111.9 136.8,111.9 136.8,111.9 137.5,113.3 138.1,114.7 138.6,116.2 139.1,117.6 139.6,119.1
						139.9,120.6 140.3,122.1 140.5,123.6 140.7,125.2 140.9,126.7 140.9,128.2 141,129.8 140.9,131.3 140.8,132.8 140.7,134.4
						140.4,135.9 140.2,137.4 139.8,138.9 139.4,140.4 138.9,141.9 138.4,143.3 137.9,144.8 137.2,146.1 136.5,147.5 135.8,148.9
						135,150.2 134.2,151.5 133.3,152.8 132.3,154 131.3,155.1 130.3,156.3 120.6,146.9 121.4,146 122.2,145 122.9,144 123.6,143
						124.3,141.9 124.8,140.9 125.4,139.7 125.9,138.6 126.3,137.4 126.7,136.2 127,135.1 127.2,133.8 127.4,132.6 127.6,131.4
						127.6,130.2 127.7,128.9 127.6,127.7 127.5,126.4 127.3,125.2 127.1,124 126.8,122.8 126.5,121.6 126.1,120.4 125.7,119.3
						125.2,118.2 124.6,117.1 124,116 123.3,115 122.6,113.9 121.9,113 121.1,112 120.2,111.1 119.3,110.3 118.4,109.5 117.4,108.7
						116.4,108 115.4,107.3 114.3,106.7 113.2,106.1 112.1,105.6 111,105.2 109.8,104.7 108.6,104.4 107.4,104.1 106.2,103.9
						105,103.7 103.8,103.6 102.5,103.5 101.3,103.5 100.1,103.6 98.8,103.7 97.6,103.9 96.4,104.2 95.2,104.5 94,104.8 92.9,105.2
						91.7,105.7 90.6,106.2 89.5,106.8 88.4,107.4 87.4,108.1 86.4,108.8 85.5,109.6 84.5,110.4 75.1,101.3 76,100.2 77.1,99.1
						78.1,98.1 79.3,97.1 80.4,96.2 81.6,95.3 82.9,94.5 84.2,93.7 85.4,93 86.8,92.3 88.1,91.7 89.5,91.2 90.9,90.7 92.3,90.3
						93.8,89.9 95.2,89.6 96.7,89.3 96.7,89.3 113.2,71 103.3,64.1 90.7,74.8 90.7,74.8 90.2,75.2 89.7,75.6 89.1,75.9 88.5,76.3
						87.9,76.5 87.3,76.7 86.7,76.8 86,76.9 85.4,76.9 84.7,76.9 84.1,76.8 83.5,76.6 82.8,76.4 82.3,76.1 81.7,75.8 81.1,75.4
						80.6,75.1 80.2,74.6 79.8,74.1 79.4,73.5 79.1,73 78.8,72.4 78.6,71.8 78.4,71.1 78.3,70.5 78.3,69.8 78.3,69.2 78.4,68.5
						78.5,67.9 78.7,67.3 78.9,66.7 79.3,66.1 79.6,65.6 80,65 80.4,64.6 80.4,64.5 97.2,48.7 97.3,48.7 97.6,48.2 98,47.8
						98.4,47.4 98.8,47 99.3,46.7 99.9,46.5 100.4,46.3 101,46.1 101.6,46 102.2,46 102.7,46.1 103.3,46.2 103.9,46.3 104.4,46.5
						104.9,46.8 143.1,70.3 143.1,70.3 143.5,70.9 143.8,71.6 144.1,72.3 144.4,72.9 144.5,73.6 144.6,74.4 144.7,75.1 144.6,75.8
						144.6,76.5 144.4,77.2 144.2,77.9 143.9,78.6 143.6,79.2 143.6,79.2 128.9,96.3 156.5,96.3 156.5,96.3 157.1,96.6 157.7,96.9
						158.2,97.2 158.7,97.6 159.2,98.1 159.6,98.5 160,99.1 160.3,99.6 160.6,100.2 160.8,100.8 161,101.4 					"/>
					<polygon class="st6" points="159.1,53 159.1,53.9 159.1,54.8 159,55.6 158.9,56.5 158.7,57.4 158.4,58.3 158.1,59.1
						157.7,59.9 157.3,60.7 156.8,61.4 156.3,62.2 155.7,62.8 155.1,63.5 154.4,64.1 153.7,64.6 153,65.2 152.2,65.6 151.4,66
						150.6,66.3 149.7,66.6 148.9,66.9 148,67.1 147.1,67.2 146.2,67.2 145.3,67.2 144.4,67.2 143.5,67.1 142.7,66.9 141.8,66.6
						141,66.3 140.1,66 139.3,65.6 138.6,65.2 137.8,64.6 137.1,64.1 136.5,63.5 135.8,62.8 135.3,62.2 134.8,61.4 134.3,60.7
						133.9,59.9 133.5,59.1 133.1,58.3 132.9,57.4 132.7,56.5 132.5,55.6 132.4,54.8 132.4,53.9 132.4,53 132.5,52.1 132.7,51.2
						132.9,50.3 133.1,49.5 133.5,48.6 133.9,47.8 134.3,47 134.8,46.3 135.3,45.6 135.8,44.9 136.5,44.2 137.1,43.7 137.8,43.1
						138.6,42.6 139.3,42.1 140.1,41.7 141,41.4 141.8,41.1 142.7,40.8 143.5,40.7 144.4,40.6 145.3,40.5 146.2,40.5 147.1,40.6
						148,40.7 148.9,40.8 149.7,41.1 150.6,41.4 151.4,41.7 152.2,42.1 153,42.6 153.7,43.1 154.4,43.7 155.1,44.2 155.7,44.9
						156.3,45.6 156.8,46.3 157.3,47 157.7,47.8 158.1,48.6 158.4,49.5 158.7,50.3 158.9,51.2 159,52.1 					"/>
					<polygon class="st6" points="125.8,160.3 124.5,161.3 123.3,162.1 122,162.9 120.7,163.7 119.3,164.4 117.9,165 116.5,165.6
						115.1,166.1 113.6,166.6 112.2,167.1 110.7,167.4 109.2,167.7 107.7,168 106.1,168.2 104.6,168.3 103.1,168.4 101.6,168.4
						100,168.3 98.5,168.2 97,168.1 95.5,167.8 94,167.5 92.5,167.2 91,166.8 89.5,166.3 88.1,165.8 86.7,165.2 85.3,164.6
						83.9,163.9 82.6,163.1 81.3,162.3 80,161.5 78.8,160.6 77.6,159.7 76.4,158.7 75.3,157.6 74.2,156.6 73.2,155.4 72.2,154.3
						71.2,153.1 70.3,151.9 69.4,150.6 68.7,149.3 67.9,147.9 67.2,146.6 66.5,145.2 66,143.8 65.4,142.4 64.9,140.9 64.5,139.4
						64.2,137.9 63.8,136.4 63.6,134.9 63.4,133.4 63.3,131.9 63.2,130.3 63.2,128.8 63.3,127.3 63.4,125.7 63.6,124.2 63.8,122.7
						64.1,121.2 64.5,119.7 64.9,118.3 65.3,116.8 65.9,115.4 66.5,113.9 67.1,112.6 67.8,111.2 68.5,109.8 69.3,108.5 70.2,107.3
						71.1,106 71.1,106 80.5,115.2 80.6,115.2 79.9,116.2 79.3,117.3 78.8,118.4 78.3,119.6 77.8,120.8 77.5,121.9 77.1,123.2
						76.9,124.4 76.7,125.6 76.5,126.8 76.4,128.1 76.4,129.3 76.5,130.6 76.6,131.8 76.7,133.1 76.9,134.3 77.2,135.5 77.5,136.7
						77.9,137.9 78.4,139 78.9,140.2 79.4,141.3 80,142.4 80.7,143.4 81.4,144.4 82.2,145.4 83,146.4 83.9,147.3 84.8,148.1
						85.7,148.9 86.7,149.7 87.7,150.4 88.7,151.1 89.8,151.7 90.9,152.3 92.1,152.8 93.2,153.3 94.4,153.7 95.6,154 96.8,154.3
						98,154.5 99.3,154.7 100.5,154.8 101.8,154.8 103,154.8 104.2,154.8 105.5,154.6 106.7,154.4 107.9,154.1 109.1,153.8
						110.3,153.5 111.5,153 112.6,152.5 113.7,152 114.8,151.4 115.9,150.8 115.9,150.8 					"/>
				</g>
				<g>
					<line class="st11" x1="14.4" y1="1.1" x2="213.2" y2="1.1"/>
					<line class="st11" x1="227.4" y1="215.5" x2="227.4" y2="15.3"/>
					<line class="st11" x1="0.3" y1="215.5" x2="0.3" y2="15.3"/>
					<line class="st11" x1="14.4" y1="229.7" x2="213.2" y2="229.7"/>
					<polyline class="st11" points="213.2,229.7 214.1,229.6 215.1,229.6 216,229.4 216.9,229.2 217.8,228.9 218.6,228.6
						219.5,228.2 220.3,227.8 221.1,227.3 221.8,226.8 222.6,226.1 223.2,225.5 223.9,224.9 224.5,224.1 225,223.4 225.5,222.6
						225.9,221.8 226.3,220.9 226.6,220.1 226.9,219.2 227.1,218.3 227.3,217.4 227.4,216.4 227.4,215.5 					"/>
					<polyline class="st11" points="227.4,15.3 227.4,14.4 227.3,13.5 227.1,12.6 226.9,11.7 226.6,10.8 226.3,9.9 225.9,9.1
						225.5,8.3 225,7.5 224.5,6.7 223.9,6 223.2,5.3 222.6,4.7 221.8,4.1 221.1,3.5 220.3,3.1 219.5,2.6 218.6,2.2 217.8,1.9
						216.9,1.6 216,1.4 215.1,1.3 214.1,1.2 213.2,1.2 					"/>
					<polyline class="st11" points="14.4,1.2 13.5,1.2 12.6,1.3 11.7,1.4 10.8,1.6 9.9,1.9 9,2.2 8.2,2.6 7.4,3.1 6.6,3.5 5.8,4.1
						5.1,4.7 4.4,5.3 3.8,6 3.2,6.7 2.7,7.5 2.2,8.3 1.7,9.1 1.4,9.9 1,10.8 0.8,11.7 0.6,12.6 0.4,13.5 0.3,14.4 0.3,15.3 					"/>
					<polyline class="st11" points="0.3,215.5 0.3,216.4 0.4,217.4 0.6,218.3 0.8,219.2 1,220.1 1.4,220.9 1.7,221.8 2.2,222.6
						2.7,223.4 3.2,224.1 3.8,224.9 4.4,225.5 5.1,226.1 5.8,226.8 6.6,227.3 7.4,227.8 8.2,228.2 9,228.6 9.9,228.9 10.8,229.2
						11.7,229.4 12.6,229.6 13.5,229.6 14.4,229.7 					"/>
					<polygon class="st11" points="159.1,53.9 159.1,53 159,52.1 158.9,51.2 158.7,50.3 158.4,49.5 158.1,48.6 157.7,47.8 157.3,47
						156.8,46.3 156.3,45.6 155.7,44.9 155.1,44.2 154.4,43.7 153.7,43.1 153,42.6 152.2,42.1 151.4,41.7 150.6,41.4 149.7,41.1
						148.9,40.8 148,40.7 147.1,40.6 146.2,40.5 145.3,40.5 144.4,40.6 143.5,40.7 142.7,40.8 141.8,41.1 141,41.4 140.1,41.7
						139.3,42.1 138.6,42.6 137.8,43.1 137.1,43.7 136.5,44.2 135.8,44.9 135.3,45.6 134.8,46.3 134.3,47 133.9,47.8 133.5,48.6
						133.1,49.5 132.9,50.3 132.7,51.2 132.5,52.1 132.4,53 132.4,53.9 132.4,54.8 132.5,55.6 132.7,56.5 132.9,57.4 133.1,58.3
						133.5,59.1 133.9,59.9 134.3,60.7 134.8,61.4 135.3,62.2 135.8,62.8 136.5,63.5 137.1,64.1 137.8,64.6 138.6,65.2 139.3,65.6
						140.1,66 141,66.3 141.8,66.6 142.7,66.9 143.5,67.1 144.4,67.2 145.3,67.2 146.2,67.2 147.1,67.2 148,67.1 148.9,66.9
						149.7,66.6 150.6,66.3 151.4,66 152.2,65.6 153,65.2 153.7,64.6 154.4,64.1 155.1,63.5 155.7,62.8 156.3,62.2 156.8,61.4
						157.3,60.7 157.7,59.9 158.1,59.1 158.4,58.3 158.7,57.4 158.9,56.5 159,55.6 159.1,54.8 					"/>
					<line class="st11" x1="104.9" y1="46.8" x2="143.1" y2="70.3"/>
					<polyline class="st11" points="143.6,79.2 143.6,79.2 128.9,96.3 					"/>
					<polyline class="st11" points="128.9,96.3 156.5,96.3 156.6,96.3 					"/>
					<polyline class="st11" points="143.6,79.2 143.9,78.6 144.2,77.9 144.4,77.2 144.6,76.5 144.6,75.8 144.7,75.1 144.6,74.4
						144.5,73.6 144.4,72.9 144.1,72.3 143.8,71.6 143.5,70.9 143.1,70.3 					"/>
					<line class="st11" x1="161.1" y1="102.1" x2="159.4" y2="142.8"/>
					<line class="st11" x1="144" y1="143.2" x2="146.3" y2="111.9"/>
					<line class="st11" x1="146.3" y1="111.9" x2="136.8" y2="111.9"/>
					<line class="st11" x1="97.2" y1="48.7" x2="80.4" y2="64.5"/>
					<polyline class="st11" points="90.7,74.8 103.3,64.1 113.2,71 96.7,89.3 					"/>
					<line class="st11" x1="75.1" y1="101.3" x2="84.5" y2="110.4"/>
					<polyline class="st11" points="71.1,106 71.1,106 80.5,115.2 					"/>
					<polyline class="st11" points="115.9,150.8 125.8,160.3 125.8,160.4 					"/>
					<polyline class="st11" points="120.6,146.9 130.3,156.3 130.3,156.3 					"/>
					<polyline class="st11" points="161.1,102.1 161,101.4 160.8,100.8 160.6,100.2 160.3,99.6 160,99.1 159.6,98.5 159.2,98.1
						158.7,97.6 158.2,97.2 157.7,96.9 157.1,96.6 156.5,96.3 					"/>
					<polyline class="st11" points="144,143.2 144,143.9 144,144.6 144.2,145.2 144.3,145.9 144.6,146.5 144.9,147.1 145.3,147.7
						145.6,148.3 146.1,148.8 146.6,149.3 147.1,149.7 147.7,150.1 148.3,150.4 148.9,150.7 149.5,150.9 150.2,151.1 150.9,151.2
						151.5,151.2 152.2,151.2 152.9,151.1 153.6,151 154.2,150.8 154.8,150.5 155.5,150.2 156,149.9 156.6,149.4 157.1,149
						157.5,148.5 158,147.9 158.3,147.4 158.7,146.8 158.9,146.2 159.1,145.5 159.3,144.8 159.4,144.2 159.4,143.5 159.4,142.8
											"/>
					<polyline class="st11" points="104.9,46.8 104.4,46.5 103.9,46.3 103.3,46.2 102.7,46.1 102.2,46 101.6,46 101,46.1
						100.4,46.3 99.9,46.5 99.3,46.7 98.8,47 98.4,47.4 98,47.8 97.6,48.2 97.3,48.7 					"/>
					<polyline class="st11" points="80.4,64.6 80,65 79.6,65.6 79.3,66.1 78.9,66.7 78.7,67.3 78.5,67.9 78.4,68.5 78.3,69.2
						78.3,69.8 78.3,70.5 78.4,71.1 78.6,71.8 78.8,72.4 79.1,73 79.4,73.5 79.8,74.1 80.2,74.6 80.6,75.1 81.1,75.4 81.7,75.8
						82.3,76.1 82.8,76.4 83.5,76.6 84.1,76.8 84.7,76.9 85.4,76.9 86,76.9 86.7,76.8 87.3,76.7 87.9,76.5 88.5,76.3 89.1,75.9
						89.7,75.6 90.2,75.2 90.7,74.8 					"/>
					<polyline class="st11" points="71.1,106 70.2,107.3 69.3,108.5 68.5,109.8 67.8,111.2 67.1,112.6 66.5,113.9 65.9,115.4
						65.3,116.8 64.9,118.3 64.5,119.7 64.1,121.2 63.8,122.7 63.6,124.2 63.4,125.7 63.3,127.3 63.2,128.8 63.2,130.3 63.3,131.9
						63.4,133.4 63.6,134.9 63.8,136.4 64.2,137.9 64.5,139.4 64.9,140.9 65.4,142.4 66,143.8 66.5,145.2 67.2,146.6 67.9,147.9
						68.7,149.3 69.4,150.6 70.3,151.9 71.2,153.1 72.2,154.3 73.2,155.4 74.2,156.6 75.3,157.6 76.4,158.7 77.6,159.7 78.8,160.6
						80,161.5 81.3,162.3 82.6,163.1 83.9,163.9 85.3,164.6 86.7,165.2 88.1,165.8 89.5,166.3 91,166.8 92.5,167.2 94,167.5
						95.5,167.8 97,168.1 98.5,168.2 100,168.3 101.6,168.4 103.1,168.4 104.6,168.3 106.1,168.2 107.7,168 109.2,167.7
						110.7,167.4 112.2,167.1 113.6,166.6 115.1,166.1 116.5,165.6 117.9,165 119.3,164.4 120.7,163.7 122,162.9 123.3,162.1
						124.5,161.3 125.8,160.3 					"/>
					<polyline class="st11" points="80.6,115.2 80.6,115.2 79.9,116.2 79.3,117.3 78.8,118.4 78.3,119.6 77.8,120.8 77.5,121.9
						77.1,123.2 76.9,124.4 76.7,125.6 76.5,126.8 76.4,128.1 76.4,129.3 76.5,130.6 76.6,131.8 76.7,133.1 76.9,134.3 77.2,135.5
						77.5,136.7 77.9,137.9 78.4,139 78.9,140.2 79.4,141.3 80,142.4 80.7,143.4 81.4,144.4 82.2,145.4 83,146.4 83.9,147.3
						84.8,148.1 85.7,148.9 86.7,149.7 87.7,150.4 88.7,151.1 89.8,151.7 90.9,152.3 92.1,152.8 93.2,153.3 94.4,153.7 95.6,154
						96.8,154.3 98,154.5 99.3,154.7 100.5,154.8 101.8,154.8 103,154.8 104.2,154.8 105.5,154.6 106.7,154.4 107.9,154.1
						109.1,153.8 110.3,153.5 111.5,153 112.6,152.5 113.7,152 114.8,151.4 115.9,150.8 115.9,150.8 					"/>
					<polyline class="st11" points="120.6,146.9 121.4,146 122.2,145 122.9,144 123.6,143 124.3,141.9 124.8,140.9 125.4,139.7
						125.9,138.6 126.3,137.4 126.7,136.2 127,135.1 127.2,133.8 127.4,132.6 127.6,131.4 127.6,130.2 127.7,128.9 127.6,127.7
						127.5,126.4 127.3,125.2 127.1,124 126.8,122.8 126.5,121.6 126.1,120.4 125.7,119.3 125.2,118.2 124.6,117.1 124,116
						123.3,115 122.6,113.9 121.9,113 121.1,112 120.2,111.1 119.3,110.3 118.4,109.5 117.4,108.7 116.4,108 115.4,107.3
						114.3,106.7 113.2,106.1 112.1,105.6 111,105.2 109.8,104.7 108.6,104.4 107.4,104.1 106.2,103.9 105,103.7 103.8,103.6
						102.5,103.5 101.3,103.5 100.1,103.6 98.8,103.7 97.6,103.9 96.4,104.2 95.2,104.5 94,104.8 92.9,105.2 91.7,105.7 90.6,106.2
						89.5,106.8 88.4,107.4 87.4,108.1 86.4,108.8 85.5,109.6 84.5,110.4 					"/>
					<polyline class="st11" points="130.3,156.3 131.3,155.1 132.3,154 133.3,152.8 134.2,151.5 135,150.2 135.8,148.9 136.5,147.5
						137.2,146.1 137.9,144.8 138.4,143.3 138.9,141.9 139.4,140.4 139.8,138.9 140.2,137.4 140.4,135.9 140.7,134.4 140.8,132.8
						140.9,131.3 141,129.8 140.9,128.2 140.9,126.7 140.7,125.2 140.5,123.6 140.3,122.1 139.9,120.6 139.6,119.1 139.1,117.6
						138.6,116.2 138.1,114.7 137.5,113.3 136.8,111.9 					"/>
					<polyline class="st11" points="96.7,89.3 95.2,89.6 93.8,89.9 92.3,90.3 90.9,90.7 89.5,91.2 88.1,91.7 86.8,92.3 85.4,93
						84.2,93.7 82.9,94.5 81.6,95.3 80.4,96.2 79.3,97.1 78.1,98.1 77.1,99.1 76,100.2 75.1,101.3 					"/>
				</g>
			</g>
		</g>
	</g>
	<g id="Layer_3" class="st1">
		<rect x="538.8" y="-174.9" class="st5" width="198.6" height="26.4"/>
		<text transform="matrix(1 0 0 1 115.7869 -154.4903)" class="st6 st7 st8 st9">   </text>
		<text transform="matrix(1 0 0 1 223.7869 -154.4903)" class="st6 st7 st8">  ACCESSIBILITY</text>
	</g>
	<g id="Layer_2_2_" class="st1">
	</g>
</g>
<g id="Layer_3_1_">
	<g>
		<g id="XMLID_2_">
			<g>
				<path class="st12" d="M67.4,98.4l9.4,9.6l29.7-27.8l-6.9,1.7l4.2-6.3l-8.4-7.9l-5.7,4.2l3-6.7l-2.1-2.4l-4.8,4.6l3.3-7.5
					l-1.7-1.1l-29,30.8L67.4,98.4z M167.6,146.7V94.3v-3.7l-2.8-0.9l-2.8-0.8l-2.8-0.7l-1.7-0.3l0.1-0.9l0-1.8l-0.1-1.8l-0.2-1.8
					l-0.3-1.8l-0.4-1.8l-0.5-1.8l-0.6-1.8l-0.6-1.7l-0.8-1.7l-0.8-1.7l-0.9-1.6l-1-1.5l-1.1-1.5l-1.2-1.4l-1.2-1.4l-1.3-1.3
					l-1.4-1.2l-0.6-0.4l0,0l-0.7-0.6l-0.8-0.5l-0.8-0.5l0,0l-0.9-0.4l-0.9-0.3l-0.9-0.2l-1-0.1h-0.9l-1,0.1l-0.9,0.2l-0.9,0.3
					l-1.4,0.9l-1.4,0.9l-1.3,1l-1.2,1.1l-1.2,1.2l-1.1,1.3l-1,1.3l-0.9,1.4l-0.8,1.4l-0.8,1.5l-0.7,1.5l-0.6,1.6l-0.5,1.6l-0.4,1.6
					l-0.3,1.6l-0.2,1.7l-0.1,1.7v1.7l0.1,1.7l0.2,1.7l0.3,1.6l0.4,1.6l-0.5,0.1l-2.8,0.7l-2.8,0.8l-2.8,0.9h0v3v53h0l2.4,1l2.5,0.9
					l2.5,0.8l2.6,0.7l2.6,0.6l2.6,0.5l2.6,0.4l2.6,0.3l2.6,0.2l2.6,0.1h2.7l2.6-0.1l2.6-0.2l2.6-0.3l2.6-0.4l2.6-0.5l2.6-0.6
					l2.6-0.7l2.5-0.8l2.5-0.9L167.6,146.7z M228.3,15.1v199.4h0l0,1.2l-0.2,1.2l-0.3,1.2l-0.4,1.2l-0.5,1.1l-0.6,1.1l-0.7,1.1
					l-0.8,1l-0.8,0.9l-0.9,0.8l-1,0.7l-1,0.7l-1.1,0.6l-1.1,0.5l-1.1,0.4l-1.2,0.3l-1.2,0.2l-1.2,0H16l-1.2,0l-1.2-0.2l-1.2-0.3
					l-1.1-0.4l-1.1-0.5l-1.1-0.6l-1-0.7l-1-0.7L6,224.6l-0.8-0.9l-0.8-1l-0.7-1.1l-0.5-1.1l-0.5-1.1l-0.4-1.2L2.1,217l-0.1-1.2
					l0-1.2h0V15.1h0l0-1.2l0.1-1.2l0.3-1.2l0.4-1.2l0.5-1.1l0.5-1.1l0.7-1l0.8-1L6,5.2l0.9-0.8l1-0.7l1-0.7L10,2.4l1.1-0.5l1.1-0.4
					l1.2-0.3l1.2-0.2L16,1v0h198.2v0l1.2,0l1.2,0.2l1.2,0.3l1.1,0.4l1.1,0.5l1.1,0.6l1,0.7l1,0.7l0.9,0.8l0.8,0.9l0.8,1l0.7,1
					l0.6,1.1l0.5,1.1l0.4,1.2l0.3,1.2l0.2,1.2L228.3,15.1L228.3,15.1z"/>
				<polygon class="st13" points="167.6,94.3 167.6,146.7 165.2,147.7 162.6,148.6 160.1,149.4 157.6,150.1 155,150.7 152.4,151.2
					149.7,151.6 147.1,151.9 144.5,152.1 141.8,152.2 139.2,152.2 136.5,152.1 133.9,151.9 131.3,151.6 128.6,151.2 126,150.7
					123.4,150.1 120.9,149.4 118.3,148.6 115.8,147.7 113.4,146.7 113.3,146.7 113.3,93.7 113.3,90.7 113.4,90.7 115.3,91.8
					117.2,92.9 119.2,93.9 121.2,94.8 123.2,95.6 125.3,96.3 127.4,96.9 129.6,97.5 131.7,97.9 133.9,98.3 136.1,98.5 138.3,98.7
					140.5,98.7 142.7,98.7 144.9,98.5 147.1,98.3 149.3,97.9 151.4,97.5 153.6,96.9 155.7,96.3 156.1,96.2 157.8,95.6 159.8,94.8
					161.8,93.9 163.8,92.9 165.7,91.8 167.6,90.7 				"/>
				<polygon class="st12" points="167.6,90.7 165.7,91.8 163.8,92.9 161.8,93.9 159.8,94.8 157.8,95.6 156.1,96.2 156.1,96.2
					156.6,94.4 157,92.6 157.3,90.8 157.5,88.9 157.6,88 159.2,88.3 162.1,89 164.9,89.8 				"/>
				<polygon class="st12" points="157.6,83.4 157.6,85.3 157.6,87.1 157.6,88 156.4,87.7 153.5,87.3 150.6,86.9 147.7,86.5
					144.9,86.3 141.9,86.2 139,86.2 136.1,86.3 133.3,86.5 130.3,86.9 127.5,87.3 124.6,87.7 122.3,88.2 121.9,86.6 121.6,85
					121.4,83.3 121.3,81.7 121.3,80 121.3,78.4 121.5,76.7 121.8,75.1 122.2,73.5 122.7,71.9 123.3,70.3 123.9,68.8 124.7,67.3
					125.5,65.9 126.5,64.6 127.5,63.3 128.6,62 129.8,60.8 131,59.7 132.3,58.7 133.6,57.8 135,56.9 135.9,56.6 136.9,56.3
					137.8,56.2 138.8,56.2 139.7,56.3 140.6,56.5 141.6,56.8 142.4,57.2 142.5,57.2 143.8,58.2 144.7,58.9 144.7,58.9 145.3,59.4
					146.7,60.6 148,61.9 149.2,63.3 150.4,64.7 151.5,66.2 152.5,67.7 153.4,69.3 154.3,71 155.1,72.7 155.7,74.4 156.3,76.2
					156.8,77.9 157.1,79.7 157.4,81.6 				"/>
				<polygon class="st12" points="157.6,88 157.5,88.9 157.3,90.8 157,92.6 156.6,94.4 156.1,96.2 156.1,96.2 155.7,96.3
					153.6,96.9 151.4,97.5 149.3,97.9 147.1,98.3 144.9,98.5 142.7,98.7 140.5,98.7 138.3,98.7 136.1,98.5 133.9,98.3 131.7,97.9
					129.6,97.5 127.4,96.9 125.3,96.3 123.2,95.6 121.2,94.8 119.2,93.9 117.2,92.9 115.3,91.8 113.4,90.7 116.1,89.8 118.9,89
					121.8,88.3 122.3,88.2 124.6,87.7 127.5,87.3 130.3,86.9 133.3,86.5 136.1,86.3 139,86.2 141.9,86.2 144.9,86.3 147.7,86.5
					150.6,86.9 153.5,87.3 156.4,87.7 				"/>
				<polygon class="st12" points="144.7,58.9 143.8,58.2 142.5,57.2 143.3,57.7 144,58.3 				"/>
				<polygon class="st13" points="106.5,80.2 76.8,108 67.4,98.4 67.4,98.4 58.6,89.5 87.6,58.7 89.3,59.8 85.9,67.3 90.7,62.8
					92.7,65.2 89.7,71.8 95.4,67.7 103.8,75.6 99.6,81.9 				"/>
				<polygon class="st12" points="58.6,89.5 67.4,98.4 67.4,98.4 				"/>
			</g>
			<g>
				<line class="st14" x1="16" y1="1" x2="214.2" y2="1"/>
				<polyline class="st14" points="228.3,15.1 228.2,13.9 228.1,12.7 227.8,11.5 227.4,10.3 226.9,9.2 226.4,8.1 225.7,7.1
					224.9,6.1 224.1,5.2 223.2,4.3 222.2,3.6 221.2,2.9 220.1,2.4 219,1.9 217.8,1.5 216.6,1.2 215.4,1.1 214.2,1 				"/>
				<line class="st14" x1="228.3" y1="214.6" x2="228.3" y2="15.1"/>
				<polyline class="st14" points="214.2,228.7 215.4,228.7 216.6,228.5 217.8,228.2 219,227.8 220.1,227.4 221.2,226.8
					222.2,226.1 223.2,225.4 224.1,224.6 224.9,223.7 225.7,222.7 226.4,221.6 226.9,220.6 227.4,219.4 227.8,218.2 228.1,217
					228.2,215.8 228.3,214.6 				"/>
				<line class="st14" x1="1.9" y1="214.6" x2="1.9" y2="15.1"/>
				<polyline class="st14" points="16,1 14.8,1.1 13.5,1.2 12.3,1.5 11.2,1.9 10,2.4 8.9,2.9 7.9,3.6 6.9,4.3 6,5.2 5.2,6.1
					4.4,7.1 3.8,8.1 3.2,9.2 2.8,10.3 2.4,11.5 2.1,12.7 1.9,13.9 1.9,15.1 				"/>
				<line class="st14" x1="16" y1="228.7" x2="214.2" y2="228.7"/>
				<polyline class="st14" points="1.9,214.6 1.9,215.8 2.1,217 2.4,218.2 2.8,219.4 3.2,220.6 3.8,221.6 4.4,222.7 5.2,223.7
					6,224.6 6.9,225.4 7.9,226.1 8.9,226.8 10,227.4 11.2,227.8 12.3,228.2 13.5,228.5 14.8,228.7 16,228.7 				"/>
				<polyline class="st14" points="113.3,93.7 113.3,146.7 113.3,146.7 				"/>
				<polyline class="st14" points="167.6,94.3 167.6,146.7 167.6,146.7 				"/>
				<polyline class="st14" points="113.4,146.7 115.8,147.7 118.3,148.6 120.9,149.4 123.4,150.1 126,150.7 128.6,151.2
					131.3,151.6 133.9,151.9 136.5,152.1 139.2,152.2 141.8,152.2 144.5,152.1 147.1,151.9 149.7,151.6 152.4,151.2 155,150.7
					157.6,150.1 160.1,149.4 162.6,148.6 165.2,147.7 167.6,146.7 				"/>
				<polyline class="st14" points="113.4,90.7 115.3,91.8 117.2,92.9 119.2,93.9 121.2,94.8 123.2,95.6 125.3,96.3 127.4,96.9
					129.6,97.5 131.7,97.9 133.9,98.3 136.1,98.5 138.3,98.7 140.5,98.7 142.7,98.7 144.9,98.5 147.1,98.3 149.3,97.9 151.4,97.5
					153.6,96.9 155.7,96.3 156.1,96.2 157.8,95.6 159.8,94.8 161.8,93.9 163.8,92.9 165.7,91.8 167.6,90.7 				"/>
				<line class="st14" x1="113.3" y1="93.7" x2="113.3" y2="90.7"/>
				<line class="st14" x1="167.6" y1="90.7" x2="167.6" y2="94.3"/>
				<polyline class="st14" points="167.6,90.7 164.9,89.8 162.1,89 159.2,88.3 157.6,88 156.4,87.7 153.5,87.3 150.6,86.9
					147.7,86.5 144.9,86.3 141.9,86.2 139,86.2 136.1,86.3 133.3,86.5 130.3,86.9 127.5,87.3 124.6,87.7 122.3,88.2 121.8,88.3
					118.9,89 116.1,89.8 113.4,90.7 				"/>
				<polyline class="st14" points="135,56.9 133.6,57.8 132.3,58.7 131,59.7 129.8,60.8 128.6,62 127.5,63.3 126.5,64.6 125.5,65.9
					124.7,67.3 123.9,68.8 123.3,70.3 122.7,71.9 122.2,73.5 121.8,75.1 121.5,76.7 121.3,78.4 121.3,80 121.3,81.7 121.4,83.3
					121.6,85 121.9,86.6 122.3,88.2 				"/>
				<line class="st14" x1="142.4" y1="57.2" x2="142.3" y2="57.1"/>
				<polyline class="st14" points="144.7,58.9 143.8,58.2 142.5,57.2 				"/>
				<polyline class="st14" points="156.1,96.2 156.6,94.4 157,92.6 157.3,90.8 157.5,88.9 157.6,88 157.6,87.1 157.6,85.3
					157.6,83.4 157.4,81.6 157.1,79.7 156.8,77.9 156.3,76.2 155.7,74.4 155.1,72.7 154.3,71 153.4,69.3 152.5,67.7 151.5,66.2
					150.4,64.7 149.2,63.3 148,61.9 146.7,60.6 145.3,59.4 144.7,58.9 				"/>
				<polyline class="st14" points="144.7,58.9 144.7,58.9 144,58.3 143.3,57.7 142.5,57.2 142.4,57.2 141.6,56.8 140.6,56.5
					139.7,56.3 138.8,56.2 137.8,56.2 136.9,56.3 135.9,56.6 135,56.9 				"/>
				<polyline class="st14" points="47.6,118.6 67.4,98.4 67.4,98.4 58.6,89.5 67.4,98.4 76.8,108 106.5,80.2 99.6,81.9 103.8,75.6
					95.4,67.7 89.7,71.8 92.7,65.2 90.7,62.8 85.9,67.3 89.3,59.8 87.6,58.7 58.6,89.5 				"/>
			</g>
		</g>
	</g>
	<g id="Layer_3_2_">
		<rect x="345.4" y="188.2" class="st5" width="198.6" height="26.4"/>
		<text transform="matrix(1 0 0 1 -77.6518 208.5885)" class="st6 st7 st8 st9">   </text>
		<text transform="matrix(1 0 0 1 69.3482 208.5881)" class="st6 st15 st8">  FINISHES</text>
	</g>
</g>
</svg>
