<?xml version="1.0" encoding="UTF-8"?>
<svg width="40px" height="35px" viewBox="0 0 866 752" version="1.1" xmlns="http://www.w3.org/2000/svg" xmlns:xlink="http://www.w3.org/1999/xlink">
    <title>Shape</title>
    <defs></defs>
    <g id="Page-1" stroke="none" stroke-width="1" fill="none" fill-rule="evenodd">
        <path d="M846.5,112.1 L572.9,2.2 C569.6,0.9 566.2,0.2 562.8,0.1 C562.8,0.1 562.8,0.1 562.8,0.1 C562.4,0.1 562,0.1 561.6,0.1 C561.2,0.1 560.8,0.1 560.4,0.1 C560.4,0.1 560.4,0.1 560.4,0.1 C557,0.2 553.6,0.9 550.3,2.2 L276.6,112.1 C265.2,116.7 257.8,127.7 257.8,139.9 L257.8,288.2 L199.4,264.7 C196.7,263.6 193.9,263 191.1,262.9 C191,262.9 191,262.9 190.9,262.9 C190.6,262.9 190.3,262.9 189.9,262.9 C189.6,262.9 189.3,262.9 189,262.9 C188.9,262.9 188.8,262.9 188.8,262.9 C186,263 183.2,263.6 180.5,264.7 L16.4,330.6 C6.9,334.4 0.7,343.6 0.7,353.9 L0.7,726.9 C0.7,740.7 11.9,752 25.8,752 C39.7,752 50.9,740.8 50.9,726.9 L50.9,370.8 L164.9,325.1 L164.9,726.9 C164.9,740.7 176.1,752 190,752 C190,752 190.1,752 190.1,752 C190.1,752 190.2,752 190.2,752 L288,752 C288,752 288,752 288,752 C288,752 288,752 288,752 L354.3,752 C368.1,752 379.4,740.8 379.4,726.9 L379.4,353.9 C379.4,343.7 373.2,334.5 363.7,330.6 L318,312.3 L318,160.2 L531.7,74.4 L531.7,721.9 C531.7,738.5 545.1,751.9 561.7,751.9 C561.7,751.9 561.8,751.9 561.8,751.9 C561.8,751.9 561.9,751.9 561.9,751.9 L835.6,751.9 C852.2,751.9 865.6,738.5 865.6,721.9 L865.6,139.9 C865.4,127.7 857.9,116.6 846.5,112.1 Z" id="Shape" fill="#a7a3a3" fill-rule="nonzero"></path>
    </g>
</svg>
