<svg viewBox="0 0 417 418" version="1.1" xmlns="http://www.w3.org/2000/svg" xmlns:xlink="http://www.w3.org/1999/xlink">
    <title>Clock Icon</title>
    <g fill="#002A5C" fill-rule="evenodd">
        <path d="M208.166667,0.666666667 C93.1666667,0.666666667 0.0416666667,94 0.0416666667,209 C0.0416666667,324 93.1666667,417.333333 208.166667,417.333333 C323.375,417.333333 416.708333,324 416.708333,209 C416.708333,94 323.375,0.666666667 208.166667,0.666666667 L208.166667,0.666666667 Z M208.375,375.666667 C116.291667,375.666667 41.7083333,301.083333 41.7083333,209 C41.7083333,116.916667 116.291667,42.3333333 208.375,42.3333333 C300.458333,42.3333333 375.041667,116.916667 375.041667,209 C375.041667,301.083333 300.458333,375.666667 208.375,375.666667 Z M218.791667,104.833333 L187.541667,104.833333 L187.541667,229.833333 L296.916667,295.458333 L312.541667,269.833333 L218.791667,214.208333 L218.791667,104.833333 Z"></path>
    </g>
</svg>
