<?xml version="1.0" encoding="UTF-8"?>
<svg width="22px" height="24px" viewBox="0 0 303 337" version="1.1" xmlns="http://www.w3.org/2000/svg" xmlns:xlink="http://www.w3.org/1999/xlink">
    <title>Date icon</title>
    <g id="Page-1" stroke="none" stroke-width="1" fill="none" fill-rule="evenodd">
        <path d="M269.333333,33.7 C287.85,33.7 303,48.865 303,67.4 L303,303.3 C303,321.835 287.85,337 269.333333,337 L33.6666667,337 C14.9816667,337 0,321.835 0,303.3 L0.168333333,67.4 C0.168333333,48.865 14.9816667,33.7 33.6666667,33.7 L50.5,33.7 L50.5,0 L84.1666667,0 L84.1666667,33.7 L218.833333,33.7 L218.833333,0 L252.5,0 L252.5,33.7 L269.333333,33.7 Z M34,303.35 L269.666667,303.35 L269.666667,118 L34,118 L34,303.35 Z M101,144.65 L101,178.35 L67.3333333,178.35 L67.3333333,144.65 L101,144.65 Z M168.333333,144.65 L168.333333,178.35 L134.666667,178.35 L134.666667,144.65 L168.333333,144.65 Z M202,144.65 L235.666667,144.65 L235.666667,178.35 L202,178.35 L202,144.65 Z M100.666667,194 L100.666667,227.7 L67,227.7 L67,194 L100.666667,194 Z M168.666667,194 L168.666667,227.7 L135,227.7 L135,194 L168.666667,194 Z M202,194 L235.666667,194 L235.666667,227.7 L202,227.7 L202,194 Z M100.666667,243.35 L100.666667,277.05 L67,277.05 L67,243.35 L100.666667,243.35 Z M168.666667,243.35 L168.666667,277.05 L135,277.05 L135,243.35 L168.666667,243.35 Z M202,243.35 L235.666667,243.35 L235.666667,277.05 L202,277.05 L202,243.35 Z" id="Combined-Shape" fill="#337AB7"></path>
    </g>
</svg>
