<?xml version="1.0" encoding="UTF-8"?>
<svg width="40px" height="40px" viewBox="0 0 497 523" version="1.1" xmlns="http://www.w3.org/2000/svg" xmlns:xlink="http://www.w3.org/1999/xlink">
    <title>leaf</title>
    <defs>
        <path d="M280.688102,52.6501992 C154.685365,39.1026885 84.7547018,105.144859 61.439296,132.659837 C44.8898686,149.7381 31.902301,170.72041 24.0475445,194.906838 C13.0042236,229.110025 14.0930017,264.32422 24.9030131,295.852124 C85.6412783,216.697954 187.364263,201.906126 215.65694,199.26195 C182.635855,215.966917 37.3928535,297.345305 4.86949561,450.971898 C4.5273082,452.23177 4.09179695,453.460534 3.79627146,454.73596 C3.00301883,457.924524 2.25642812,461.113089 1.58760727,464.410531 C1.19875794,466.277008 0.778800669,468.12793 0.607706964,470.041069 C-0.154437721,473.649591 -1.27432379,482.950867 4.85394164,485.377287 L25.6184958,491.84774 C25.6184958,491.84774 36.5840469,494.896318 36.3507373,482.593126 C36.5840469,441.530636 47.3473963,395.521984 74.7379431,367.78925 C89.8252971,380.216874 107.463503,390.078093 127.217049,396.455222 C177.25418,412.600246 229.468868,402.832351 269.302593,374.493012 C410.68821,286.675279 472.001972,0 472.001972,0 C419.320665,69.3862743 280.688102,52.6501992 280.688102,52.6501992 Z" id="path-1"></path>
    </defs>
    <g id="Page-1" stroke="none" stroke-width="1" fill="none" fill-rule="evenodd">
        <g id="leaf" transform="translate(10.000000, 20.000000)" fill-rule="nonzero">
            <g id="Shape">
                <use fill="#C5D451" fill-rule="evenodd" xlink:href="#path-1"></use>
                <path stroke="#736f6f" stroke-width="10" d="M272.073408,378.657912 C229.852613,408.635939 175.910115,417.420401 125.68094,401.213412 C107.218335,395.253043 90.2255785,386.234163 75.22167,374.578731 C53.2747958,399.18246 41.6075686,439.193681 41.3509918,482.563727 C41.4752252,490.184315 38.0026938,495.119125 32.3084103,496.680196 C30.0181964,497.308051 27.7409121,497.304747 25.5972854,496.946838 C25.0377222,496.853411 24.5917785,496.751931 24.2792193,496.665035 L24.1309898,496.621347 L3.18751725,490.095141 L3.01327436,490.026152 C-1.71493222,488.15407 -4.1508729,484.002241 -4.81330402,478.781889 C-5.2097591,475.657586 -4.95617215,472.322707 -4.34439823,469.298194 C-4.20257125,467.866077 -3.97070479,466.556724 -3.54110291,464.504638 C-3.48803076,464.251607 -3.48803076,464.251607 -3.43558501,464.002447 C-3.37060952,463.69368 -3.34279468,463.561159 -3.31261094,463.416619 C-2.6807029,460.301165 -1.95714379,457.151779 -1.07468143,453.607324 C-0.893003362,452.82324 -0.728842832,452.248856 -0.354506755,451.018456 C-0.167730327,450.404544 -0.0761355218,450.097228 0.0086278478,449.791411 C14.7273303,380.432609 52.6710026,320.630712 106.660634,270.120099 C126.922764,251.163632 148.532602,234.42358 170.611304,219.861402 C177.164885,215.538937 183.497136,211.57746 189.545951,207.974632 C172.096531,211.224201 153.332797,216.262315 134.226522,223.538429 C91.6529152,239.751447 55.3771423,264.351509 28.8697523,298.895967 L23.1960869,306.289893 L20.1733038,297.473805 C8.7101475,264.040974 8.19182497,227.741811 19.2920372,193.362445 C27.2000981,169.011881 40.3307658,147.294263 57.7323761,129.300398 C75.482078,108.387239 99.5502668,88.3247799 130.301848,72.7935112 C173.271515,51.0914258 223.515028,41.474271 281.222609,47.6788511 L281.287364,47.6862405 C281.383453,47.6978406 281.59029,47.7216421 281.90408,47.7559177 C282.438668,47.8143114 283.07265,47.87973 283.802228,47.9504475 C285.900628,48.1538439 288.336069,48.3577578 291.078132,48.5483975 C320.888281,50.6209232 354.075103,49.4587332 385.279713,42.7013554 C422.046491,34.7394865 450.621194,19.891988 468.019716,-3.02351474 L481.582273,-20.8866869 L476.891391,1.0457431 C476.846953,1.25351567 476.760464,1.65046165 476.631683,2.23048908 C476.418804,3.18929907 476.163158,4.31898956 475.864505,5.6134695 C475.013419,9.3024093 473.987442,13.5772971 472.784643,18.3894171 C469.351938,32.1228719 465.188948,47.4194906 460.279968,63.8898285 C446.252372,110.954444 429.053893,158.023725 408.548049,201.990731 C370.267728,284.068367 324.987498,345.735826 272.073408,378.657912 Z"></path>
            </g>
        </g>
    </g>
</svg>
