<?xml version="1.0" encoding="UTF-8"?>
<svg height="50px" viewBox="0 0 508 508" version="1.1" xmlns="http://www.w3.org/2000/svg" xmlns:xlink="http://www.w3.org/1999/xlink">
    <!-- Generator: Sketch 45.2 (43514) - http://www.bohemiancoding.com/sketch -->
    <title>Phone Icon</title>
    <g id="Page-1" stroke="none" stroke-width="1" fill="none" fill-rule="evenodd">
        <path d="M102.164444,219.851111 C142.804444,299.72 208.28,364.913333 288.148889,405.835556 L350.237778,343.746667 C357.857778,336.126667 369.146667,333.586667 379.024444,336.973333 C410.633333,347.415556 444.782222,353.06 479.777778,353.06 C495.3,353.06 508,365.76 508,381.282222 L508,479.777778 C508,495.3 495.3,508 479.777778,508 C214.771111,508 0,293.228889 0,28.2222222 C0,12.7 12.7,0 28.2222222,0 L127,0 C142.522222,0 155.222222,12.7 155.222222,28.2222222 C155.222222,63.5 160.866667,97.3666667 171.308889,128.975556 C174.413333,138.853333 172.155556,149.86 164.253333,157.762222 L102.164444,219.851111 L102.164444,219.851111 Z" id="Icon" fill="#002A5C"></path>
    </g>
</svg>
