<?xml version="1.0" encoding="UTF-8"?>
<svg width="498px" height="498px" viewBox="0 0 498 498" version="1.1" xmlns="http://www.w3.org/2000/svg" xmlns:xlink="http://www.w3.org/1999/xlink">
    <title>spring</title>
    <defs>
        <path d="M239,41.5652174 C252.855072,13.8550725 266.710145,2.66453526e-15 294.42029,2.66453526e-15 C325.016908,2.66453526e-15 349.84058,24.8236715 349.84058,55.4202899 C349.84058,99.294686 315.780193,142.591787 274.214976,186.466184 C252.855072,172.611111 225.144928,172.611111 204.362319,186.466184 C162.797101,142.591787 128.15942,99.294686 128.15942,55.4202899 C128.15942,24.8236715 152.983092,2.66453526e-15 183.57971,2.66453526e-15 C211.289855,2.66453526e-15 225.144928,13.8550725 239,41.5652174 Z M41.5652174,239 C13.8550725,225.144928 0,211.289855 0,183.57971 C0,152.983092 24.8236715,128.15942 55.4202899,128.15942 C99.294686,128.15942 142.591787,162.797101 186.466184,204.362319 C172.611111,225.144928 172.611111,252.855072 186.466184,274.214976 C142.591787,315.780193 99.294686,349.84058 55.4202899,349.84058 C24.8236715,349.84058 0,325.016908 0,294.42029 C0,266.710145 13.8550725,252.855072 41.5652174,239 Z M239,436.434783 C225.144928,464.144928 211.289855,478 183.57971,478 C152.983092,478 128.15942,453.176329 128.15942,422.57971 C128.15942,379.282609 162.797101,335.408213 204.362319,292.111111 C225.144928,305.966184 252.855072,305.966184 274.214976,292.111111 C315.780193,335.408213 349.84058,379.282609 349.84058,422.57971 C349.84058,453.176329 325.016908,478 294.42029,478 C266.710145,478 252.855072,464.144928 239,436.434783 Z M436.434783,239 C464.144928,252.855072 478,266.710145 478,294.42029 C478,325.016908 453.176329,349.84058 422.57971,349.84058 C379.282609,349.84058 335.408213,315.780193 292.111111,274.214976 C305.966184,252.855072 305.966184,225.144928 292.111111,204.362319 C335.408213,162.797101 379.282609,128.15942 422.57971,128.15942 C453.176329,128.15942 478,152.983092 478,183.57971 C478,211.289855 464.144928,225.144928 436.434783,239 Z" id="path-1"></path>
    </defs>
    <g id="Page-1" stroke="none" stroke-width="1" fill="none" fill-rule="evenodd">
        <g id="flower" transform="translate(10.000000, 10.000000)">
            <g id="Combined-Shape">
                <use fill="#ED8680" fill-rule="evenodd" xlink:href="#path-1"></use>
                <path stroke="#736F6F" stroke-width="10" d="M239,30.9095922 C253.420563,5.48163607 268.923511,-5 294.42029,-5 C327.778332,-5 354.84058,22.0622477 354.84058,55.4202899 C354.84058,77.2199274 346.975906,99.5585552 331.846834,123.605816 C319.285469,143.571776 302.248366,164.145523 277.844739,189.904907 L274.983892,192.92469 L271.49402,190.66099 C251.798116,177.885268 226.24757,177.885268 207.13582,190.626435 L203.63019,192.963521 L200.732555,189.904907 C176.035194,163.83547 159.074023,143.475333 146.454455,123.625806 C131.12862,99.5195447 123.15942,77.1984052 123.15942,55.4202899 C123.15942,22.0622477 150.221668,-5 183.57971,-5 C209.076489,-5 224.579437,5.48163607 239,30.9095922 Z M30.9095922,239 C5.48163607,224.579437 -5,209.076489 -5,183.57971 C-5,150.221668 22.0622477,123.15942 55.4202899,123.15942 C77.1984052,123.15942 99.5195447,131.12862 123.625806,146.454455 C143.475333,159.074023 163.83547,176.035194 189.904907,200.732555 L192.963521,203.63019 L190.626435,207.13582 C177.885268,226.24757 177.885268,251.798116 190.66099,271.49402 L192.92469,274.983892 L189.904907,277.844739 C164.145523,302.248366 143.571776,319.285469 123.605816,331.846834 C99.5585552,346.975906 77.2199274,354.84058 55.4202899,354.84058 C22.0622477,354.84058 -5,327.778332 -5,294.42029 C-5,268.923511 5.48163607,253.420563 30.9095922,239 Z M239,447.090408 C224.579437,472.518364 209.076489,483 183.57971,483 C150.221668,483 123.15942,455.937752 123.15942,422.57971 C123.15942,401.047752 131.154301,378.728709 146.454455,354.662842 C159.193249,334.625781 176.5324,313.880725 200.755382,288.648452 L203.653656,285.629417 L207.13582,287.95086 C226.24757,300.692027 251.798116,300.692027 271.49402,287.916305 L274.960478,285.667791 L277.821912,288.648452 C301.791952,313.617243 319.170001,334.533338 331.846834,354.682831 C346.950527,378.689753 354.84058,401.026381 354.84058,422.57971 C354.84058,455.937752 327.778332,483 294.42029,483 C268.923511,483 253.420563,472.518364 239,447.090408 Z M447.090408,239 C472.518364,253.420563 483,268.923511 483,294.42029 C483,327.778332 455.937752,354.84058 422.57971,354.84058 C401.026381,354.84058 378.689753,346.950527 354.682831,331.846834 C334.533338,319.170001 313.617243,301.791952 288.648452,277.821912 L285.667791,274.960478 L287.916305,271.49402 C300.692027,251.798116 300.692027,226.24757 287.95086,207.13582 L285.629417,203.653656 L288.648452,200.755382 C313.880725,176.5324 334.625781,159.193249 354.662842,146.454455 C378.728709,131.154301 401.047752,123.15942 422.57971,123.15942 C455.937752,123.15942 483,150.221668 483,183.57971 C483,209.076489 472.518364,224.579437 447.090408,239 Z"></path>
            </g>
        </g>
    </g>
</svg>
