<?xml version="1.0" encoding="UTF-8"?>
<svg width="40px" height="40px" viewBox="0 0 503 534" version="1.1" xmlns="http://www.w3.org/2000/svg" xmlns:xlink="http://www.w3.org/1999/xlink">
    <title>Shape</title>
    <defs>
        <polygon id="path-1" points="464.305117 295.038386 394.442308 313.729343 287.641484 252 394.442308 190.270657 464.305117 208.961614 477 161.496422 421.060611 146.49447 436.048764 90.5035784 388.627232 77.7970072 369.871566 147.64216 263.070742 209.371503 263.070742 85.9128172 314.177885 34.7586207 279.451236 0 238.5 40.9889395 197.548764 0 162.822115 34.7586207 213.929258 85.9128172 213.929258 209.371503 107.128434 147.64216 88.3727679 77.7970072 40.9512363 90.5035784 55.9393887 146.49447 0 161.496422 12.6948832 208.961614 82.5576923 190.270657 189.358516 252 82.5576923 313.729343 12.6948832 295.038386 0 342.503578 55.9393887 357.50553 40.9512363 413.496422 88.3727679 426.202993 107.128434 356.35784 213.929258 294.628497 213.929258 418.087183 162.822115 469.241379 197.548764 504 238.5 463.011061 279.451236 504 314.177885 469.241379 263.070742 418.087183 263.070742 294.628497 369.871566 356.35784 388.627232 426.202993 436.048764 413.496422 421.060611 357.50553 477 342.503578"></polygon>
    </defs>
    <g id="Symbols" stroke="none" stroke-width="1" fill="none" fill-rule="evenodd">
        <g id="snowflake" transform="translate(13.000000, 15.000000)" fill-rule="nonzero">
            <g id="Shape">
                <use fill="#78BBF7" fill-rule="evenodd" xlink:href="#path-1"></use>
                <path stroke="#736f6f" stroke-width="10" d="M427.182883,361.040328 L442.171316,417.032269 L385.094324,432.326015 L365.578986,359.651882 L268.070742,303.293517 L268.070742,416.017463 L321.245701,469.241379 L279.451236,511.074324 L238.5,470.085384 L197.548764,511.074324 L155.754299,469.241379 L208.929258,416.017463 L208.929258,303.293517 L111.421014,359.651882 L91.9056759,432.326015 L34.828684,417.032269 L49.8171173,361.040328 L-6.12122458,346.038657 L9.15663349,288.915921 L81.8489686,308.363883 L179.36676,252 L81.8489686,195.636117 L9.15663349,215.084079 L-6.12122458,157.961343 L49.8171173,142.959672 L34.828684,86.9677315 L91.9056759,71.6739854 L111.421014,144.348118 L208.929258,200.706483 L208.929258,87.9825374 L155.754299,34.7586207 L197.548764,-7.07432368 L238.5,33.9146158 L279.451236,-7.07432368 L321.245701,34.7586207 L268.070742,87.9825374 L268.070742,200.706483 L365.578986,144.348118 L385.094324,71.6739854 L442.171316,86.9677315 L427.182883,142.959672 L483.121225,157.961343 L467.843367,215.084079 L395.151031,195.636117 L297.63324,252 L395.151031,308.363883 L467.843367,288.915921 L483.121225,346.038657 L427.182883,361.040328 Z"></path>
            </g>
        </g>
    </g>
</svg>
