<?xml version="1.0" encoding="UTF-8"?>
<svg width="40px" height="40px" viewBox="0 0 602 602" version="1.1" xmlns="http://www.w3.org/2000/svg" xmlns:xlink="http://www.w3.org/1999/xlink">
    <title>sun</title>
    <defs>
        <path d="M285,0 L339.285714,65.5952381 L427.5,38.452381 L441.071429,122.142857 L531.547619,142.5 L502.142857,223.928571 L570,285 L502.142857,339.285714 L531.547619,427.5 L445.595238,441.071429 L427.5,531.547619 L346.071429,502.142857 L285,570 L228.452381,502.142857 L142.5,531.547619 L126.666667,445.595238 L38.452381,427.5 L67.8571429,346.071429 L0,285 L65.5952381,228.452381 L38.452381,142.5 L122.142857,126.666667 L142.5,38.452381 L223.928571,67.8571429 L285,0 Z M285,131.190476 C368.690476,131.190476 436.547619,201.309524 436.547619,285 C436.547619,368.690476 368.690476,436.547619 285,436.547619 C201.309524,436.547619 131.190476,368.690476 131.190476,285 C131.190476,201.309524 201.309524,131.190476 285,131.190476 Z" id="path-1"></path>
    </defs>
    <g id="Page-1" stroke="none" stroke-width="1" fill="none" fill-rule="evenodd">
        <g id="sun" transform="translate(16.000000, 16.000000)">
            <g id="Shape">
                <use fill="#F7D557" fill-rule="evenodd" xlink:href="#path-1"></use>
                <path stroke="white" stroke-width="10" d="M341.007961,59.8339814 L431.516579,31.9851757 L445.466005,118.006637 L538.175791,138.866339 L507.988248,222.462611 L577.723492,285.224331 L507.988781,341.012099 L538.157507,431.518277 L449.815129,445.467073 L431.263974,538.222848 L347.537389,507.988248 L284.854609,577.635781 L226.81452,507.987674 L138.633028,538.155027 L122.360038,449.815937 L31.7869493,431.236842 L62.0117519,347.537389 L-7.56398133,284.919229 L59.8352439,226.816448 L31.9882345,138.634252 L118.005112,122.360789 L138.89572,31.8348191 L222.462611,62.0117519 L285.158688,-7.65055591 L341.007961,59.8339814 Z M285,136.190476 C204.070948,136.190476 136.190476,204.070948 136.190476,285 C136.190476,365.483276 203.616971,431.547619 285,431.547619 C365.929052,431.547619 431.547619,365.929052 431.547619,285 C431.547619,203.616971 365.483276,136.190476 285,136.190476 Z"></path>
            </g>
            <circle id="Oval" fill="#E8AC3E" fill-rule="evenodd" cx="285" cy="285" r="157"></circle>
        </g>
    </g>
</svg>
